<svg id="Layer_1" data-name="Layer 1" xmlns="http://www.w3.org/2000/svg" xmlns:xlink="http://www.w3.org/1999/xlink" viewBox="0 0 500 500"><defs><style>.cls-1{fill:url(#linear-gradient);}.cls-2{fill:none;stroke:#3a3a3a;stroke-linecap:round;stroke-miterlimit:10;stroke-width:1.11px;}.cls-3{fill:#fff;}</style><linearGradient id="linear-gradient" x1="1790.84" y1="352.49" x2="1998.46" y2="780.48" gradientTransform="translate(-1532.13 -169.92)" gradientUnits="userSpaceOnUse"><stop offset="0" stop-color="#499fbb"/><stop offset="1" stop-color="#18325a"/></linearGradient></defs><path class="cls-1" d="M173.18,226H429.06A20.94,20.94,0,0,1,450,247v67a0,0,0,0,1,0,0H173.18A20.94,20.94,0,0,1,152.24,293V247A20.94,20.94,0,0,1,173.18,226Z" transform="translate(602.24 540) rotate(-180)"/><polyline class="cls-2" points="50 186.05 76.84 227.07 152.24 227.07"/><path class="cls-3" d="M203.7,293a45,45,0,0,1-6.42-.4,22.93,22.93,0,0,1-5-1.27,49.47,49.47,0,0,1-4.67-2.12v-8a24.07,24.07,0,0,0,6.9,3.72,25.38,25.38,0,0,0,8.72,1.46q4.53,0,6.75-1.86a6.34,6.34,0,0,0,2.23-5.15,5.46,5.46,0,0,0-1.64-4.12,13.66,13.66,0,0,0-4.35-2.67q-2.7-1.09-5.76-2.19-2.34-.87-4.6-1.86a17,17,0,0,1-4.09-2.48,10.73,10.73,0,0,1-2.92-3.83,13.56,13.56,0,0,1-1.09-5.77,13.71,13.71,0,0,1,.94-4.89,13.44,13.44,0,0,1,2.89-4.49,13.64,13.64,0,0,1,5.11-3.21,21.58,21.58,0,0,1,7.63-1.21,31.13,31.13,0,0,1,5.07.37,20,20,0,0,1,4.09,1.13q1.94.76,4.2,1.86v7.89q-1.83-1.17-3.69-2.19a20.38,20.38,0,0,0-4.05-1.68,18.74,18.74,0,0,0-4.89-.73,12.55,12.55,0,0,0-5,.73,6.53,6.53,0,0,0-3,2.26,5.65,5.65,0,0,0-1,3.36,6,6,0,0,0,1.28,4,9.5,9.5,0,0,0,3.62,2.48c1.55.66,3.35,1.3,5.4,1.94q2.7.87,5.25,2a19.65,19.65,0,0,1,4.53,2.66,12.06,12.06,0,0,1,3.18,3.91,12.52,12.52,0,0,1,1.2,5.76,15.19,15.19,0,0,1-1.72,7.12,13,13,0,0,1-5.4,5.4A19.38,19.38,0,0,1,203.7,293Z"/><path class="cls-3" d="M235.31,306.32a13.12,13.12,0,0,1-2.63-.25,14.82,14.82,0,0,1-2.19-.62v-6.57c.59.19,1.17.36,1.76.51a7.54,7.54,0,0,0,1.89.22,5.64,5.64,0,0,0,3.65-1.17,9.22,9.22,0,0,0,2.49-3.36,25,25,0,0,0,1.68-5.25l.14,3.79-15.62-38.11h8.69l10.58,28.91h-1.09l10.44-28.91h8l-15.11,38.91a27.35,27.35,0,0,1-3.94,7.27,12.55,12.55,0,0,1-4.34,3.61A10.44,10.44,0,0,1,235.31,306.32Z"/><path class="cls-3" d="M284.44,293.26a25.84,25.84,0,0,1-6.57-.84,15.13,15.13,0,0,1-5.84-3,14.42,14.42,0,0,1-4.16-6,27.55,27.55,0,0,1-1.53-10q0-8.68,4.23-13.72t12.85-5a20.4,20.4,0,0,1,3.43.36,32.16,32.16,0,0,1,4.16,1.06,12.49,12.49,0,0,1,3.58,1.79l-2,2.56V240.19h7.59V284.5a5.89,5.89,0,0,1-1.42,3.94,10.65,10.65,0,0,1-3.76,2.74,22.26,22.26,0,0,1-5.11,1.57A30.3,30.3,0,0,1,284.44,293.26Zm.22-6.65a17.26,17.26,0,0,0,5.62-.8c1.56-.53,2.34-1.24,2.34-2.12V263.33a15.17,15.17,0,0,0-4-1.61,17.39,17.39,0,0,0-4.08-.51,11,11,0,0,0-5.88,1.42,8.44,8.44,0,0,0-3.4,4.16,18.31,18.31,0,0,0-1.09,6.76,23,23,0,0,0,.88,6.6,8.93,8.93,0,0,0,3.17,4.71A10.45,10.45,0,0,0,284.66,286.61Z"/><path class="cls-3" d="M311,258.51a28.08,28.08,0,0,1,3.61-1.5,40.61,40.61,0,0,1,4.27-1.2c1.51-.34,3-.61,4.6-.81a37.51,37.51,0,0,1,4.53-.29,21.43,21.43,0,0,1,8.46,1.43,9.72,9.72,0,0,1,4.89,4.38,15.39,15.39,0,0,1,1.61,7.41v24.23h-7.66V269a11.48,11.48,0,0,0-.33-2.74,6.37,6.37,0,0,0-1.24-2.48,6.08,6.08,0,0,0-2.63-1.79,12.75,12.75,0,0,0-4.49-.66,22.68,22.68,0,0,0-4.05.37,23.05,23.05,0,0,0-3.91,1v29.49H311Z"/><path class="cls-3" d="M369.56,293.26a19.15,19.15,0,0,1-9.38-2.19,14.74,14.74,0,0,1-6.13-6.5,23.28,23.28,0,0,1-2.15-10.51q0-9.57,4.49-14.49t12.52-4.93q5.91,0,9.56,2.63a14.68,14.68,0,0,1,5.29,7.33,32.09,32.09,0,0,1,1.57,11H356.5l-.22-5.69h23.21l-1.82,1.82c-.15-3.75-.93-6.48-2.34-8.21s-3.63-2.59-6.64-2.59a9.65,9.65,0,0,0-5,1.2,7.54,7.54,0,0,0-3.1,4.09,23.59,23.59,0,0,0-1.06,7.92q0,6.14,2.85,9.31c1.9,2.12,4.7,3.17,8.39,3.17a23.46,23.46,0,0,0,4.64-.43,25.52,25.52,0,0,0,4-1.14c1.21-.46,2.26-.91,3.14-1.35v7.09a32.41,32.41,0,0,1-5.77,1.78A33.84,33.84,0,0,1,369.56,293.26Z"/><path class="cls-3" d="M397.38,306.32a13,13,0,0,1-2.63-.25,14.15,14.15,0,0,1-2.19-.62v-6.57c.58.19,1.17.36,1.75.51a7.62,7.62,0,0,0,1.9.22,5.66,5.66,0,0,0,3.65-1.17,9.2,9.2,0,0,0,2.48-3.36,25,25,0,0,0,1.68-5.25l.15,3.79-15.63-38.11h8.69l10.59,28.91h-1.1l10.44-28.91h8L410,294.42a27.34,27.34,0,0,1-3.95,7.27,12.55,12.55,0,0,1-4.34,3.61A10.36,10.36,0,0,1,397.38,306.32Z"/></svg>