<svg id="Layer_1" data-name="Layer 1" xmlns="http://www.w3.org/2000/svg" xmlns:xlink="http://www.w3.org/1999/xlink" viewBox="0 0 595.28 841.89"><defs><style>.cls-1{fill:#eeeae2;}.cls-2{fill:#e6e7e8;}.cls-3{fill:#ffefe5;}.cls-4{fill:#e4e2dc;}.cls-5{fill:#f4efed;}.cls-6{fill:#dbdce1;}.cls-14,.cls-18,.cls-7{fill:none;}.cls-7{stroke:#fff;stroke-width:0.25px;}.cls-14,.cls-7{stroke-miterlimit:10;}.cls-8{fill:#e5e5e5;}.cls-9{fill:url(#radial-gradient);}.cls-10{fill:url(#radial-gradient-2);}.cls-11{fill:url(#radial-gradient-3);}.cls-12{fill:#848484;}.cls-13{fill:url(#linear-gradient);}.cls-14{stroke:#3a3a3a;stroke-width:0.14px;}.cls-14,.cls-18{stroke-linecap:round;}.cls-15{fill:#fff;}.cls-16{fill:url(#linear-gradient-2);}.cls-17{fill:url(#linear-gradient-3);}.cls-18{stroke:#e98a2f;stroke-linejoin:round;stroke-dasharray:0 2;}</style><radialGradient id="radial-gradient" cx="137.52" cy="452.25" r="4.76" gradientUnits="userSpaceOnUse"><stop offset="0" stop-color="#faca28"/><stop offset="0.22" stop-color="#e98a2f"/><stop offset="0.47" stop-color="#de472e"/><stop offset="0.61" stop-color="#c8375b"/><stop offset="0.83" stop-color="#774391"/><stop offset="1" stop-color="#4b3c8f"/></radialGradient><radialGradient id="radial-gradient-2" cx="399.99" cy="520.79" r="4.76" xlink:href="#radial-gradient"/><radialGradient id="radial-gradient-3" cx="455.48" cy="484.37" r="4.76" xlink:href="#radial-gradient"/><linearGradient id="linear-gradient" x1="380.93" y1="652.66" x2="416.36" y2="725.7" gradientTransform="matrix(1, 0, 0, -1, -30.11, 1207.55)" gradientUnits="userSpaceOnUse"><stop offset="0" stop-color="#499fbb"/><stop offset="1" stop-color="#18325a"/></linearGradient><linearGradient id="linear-gradient-2" x1="-1996.86" y1="540.27" x2="-1969.95" y2="595.75" gradientTransform="translate(2481.89 -51.28)" xlink:href="#linear-gradient"/><linearGradient id="linear-gradient-3" x1="99.25" y1="418.51" x2="126.17" y2="473.99" gradientTransform="matrix(1, 0, 0, 1, 0, 0)" xlink:href="#linear-gradient"/></defs><path class="cls-1" d="M261.86,454.1c-2.07.16-4.08.35-5.69.56-18.33,10.72-23.62,3.1-27,6.07s-3.87,1.55-7.09,4.52-9,1.29-9.17,4.64a8.69,8.69,0,0,1-1.55,5,6,6,0,0,0-2.71,3.22l-4.65.52V477.4l-3.74,1.4-6.71.65,1-2.05H183.76l-5.42.75c-5.81-1-7.62,5.43-7.62,5.43s-.77.9-5.55,1.67c-6.45,9.81-12.65,3.62-16,4.78s-6.59-.39-8.65-2.07-5.68-5.16-5.68-5.16h-3.36s1.16-3.1-5.94-4.65c-4.13-3.87-.64-4.9-.64-4.9l4.26,1.68,4.9-1.16,3.1-.13,1.94-2.2-2.46-2.84-.51-2.84-.78-3.35,1.81-2.07-.39-5.16-.9-3.1c-9.42-10.84-4.9-24.52-4.9-24.52l-3.49-3.62.13-2.19-4.13-5-1.16-8.13s-4.52-5.81-4.91-5.94-3.74-5.55-4-6.06-1.94-4.52-1.94-4.52l.78-2.07,5.81,9.55,2.19.39-1.81-3.87L117,394.77l-.9-3.1,1.38-.39,3.66,3.75.9,4.39,1.55-.65.26-5.57s2.19,2.73-3.62-6.18-.61-16.29-.61-16.29l.48-2.13a17.29,17.29,0,0,0-.87-5.71c-1.06-3.88,3.68-9.78,3.68-9.78V360l2.61.39c1.46-4.16,3.78-7.55,8.43-8.62s9.77-12.05,13.94-9.48c7.64,4.26,11-3.59,11-3.59l5.42,1,3.78-2.89c23.49-2.32,22.85-13.55,22.85-13.55l6.48-5.49a9.41,9.41,0,0,1-2.42-7.06l5.13-5.62,2.71-4.07c-.87,6.49,4.85,11.62,4.85,11.62l.77-4.06,2.23,2.13,2-2.13-5-3.1.38-5.23,7.65,4.26,3.78-8.33-2.71.29.77-4.35,7.36-1.74-1.65-4.94,6.68.77,1.84-3.58,1.65-1.84,3.19-1.64.58-1.36L242.1,280l6.71,6.06-.38,7.17L246.75,296a7.09,7.09,0,0,0,2-1.1c.32-.45,5.36-7.81,5.36-7.81l.08.08,5,108.81Z"/><path class="cls-2" d="M345.05,310.56v85.38H259.19l-5-108.81c.63.68,5,5.19,7.73,3.28,2.9-2.07-1.62-8-1.62-8l3.29-3.44.54-3.77s3.39.91,3.63-.49-1.21-5.61-1.21-5.61l2.76-1.6,5.18-2.81,2.75-2.71,1.55.48,2.62,1.26,2.71,1.94,2.32-1.36,3.2-3.48.38-3.68s-.09-5.71,2.52-1.36a7.94,7.94,0,0,0,7.26,3.88l6.78,2.32,1.55-.77,5,2.8L315,262.2h3.58s-1.74,2.42,1.75,3.78,2.9-4.45,2.9-4.45l5.23,2.8c-3.88,2.81-3.1,7.85-3.1,7.85-7,0-3.87,6.87-3.87,6.87s-6.68,3.87-6.2,9.68,9.29,7.45,16.27,10.55C335.6,301.07,339.92,306.57,345.05,310.56Z"/><path class="cls-3" d="M371.3,395.94,371,419.13l-1.56,108.53c-3.2-4.65-7.65-1.94-9.68-5.52s-4.46-4.16-4.46-4.16c-11.23.09-.48-7.17-.48-7.17-.19-7.74-8.52-14.52-8.52-14.52L341,497l-1.65-1s4.84-5.23,4.26-7.94-4.26-7.16-4.26-7.16l-2.81,3.19-.38,3.68.58,3.39h-4.26l-.87,1.06H327l1.46-4.45,5.13,1.26-1.07-4.36c-1.06-4.35,4.75-11.13,4.75-11.13v-2.71l1.26-1.45s-.2-2.23-2.91-5.91c.78,4.84-2.13,3.39-2.13,5.91s-2.32,6.19-2.32,6.19l-3,.39c-3.29,1.84-8.91,9.58-8.91,9.58s.58,4.26-1.06,4.17-4.72-3.42-4.85-7.3-3.35-7-3.35-7l-2.45-4.9-4.91-1-.64-3.62c4-2.71-1.55-3.87-1.55-3.87l-1.18-3s-3.86,3-5.66,0-8.14-1.91-8.14-1.91-5.8-4.29-8.26-5.06a3.27,3.27,0,0,0-3.74,1.29s-6,.28-11.61.73l-2.67-58.16Z"/><path class="cls-4" d="M478.8,415.84l-3.58-.62-2.67,2.93-1.32-2.93-2.1,3.65-3.42,2.21H463l-3.66-4.42-2.44,2.47-2.45-2.47h-8.3l-5.87,2.47H371l.33-23.19H345.05V310.56c3.72,2.91,7.87,5,12.64,4.35,11.33-1.61,13.65-25.21,13.65-25.21L370,284.28l.19-8.72.87-4.35,3-2.13s1-8,1-8.52.2-7,.2-7l3.72-3.44,3.34,4s-1.69,6,.78,7.94,5.71,12,6.48,18.78,8.52,0,8.52,0c.78,5.23,6.39,7.45,6.39,7.45s-3.1,5,3,15.59,1.26,5.23,3.49,15.88,13.36,9.87,13.36,9.87l1,4.84,12.58,4.74-2.9,2.62.09,1.45c8.23,5.62,8.52,15.88,8.52,15.88l1.46,1.06,1.54-4.16,3.88,3.48L451,366l2.81,4c23.33,18.49,20.91,28.27,21,34.12S477.35,411.68,478.8,415.84Z"/><path class="cls-5" d="M478.22,425.38l-1.55,7-.67,4.93-1.75,7.17-1.74,9.9L469.67,458l-.9,4-3.49,3.74-5.68,7.1-.9,5.94-3.62,3.61-.9,7.3-5.94,9v6.07c-1.41,1.95-2.37,7-2.64,8.57L436.23,506s1.71-2.6,0-4.56a3.26,3.26,0,0,1-.41-3.91s-3.09-3-6.75-1.06a5.5,5.5,0,0,1-6.44-.66c-.24-.15-4.64-.39-4.64-.39s-4-1.88-4.8-2-3.59-.81-4-.9-2.53,0-2.53,0v2.2l-1.55,1.06-3.25-2-2.53-5.05-4.23-2.85-1.55-1.63-1.47-1.79V479l-.81-2.45-5-.57-.89,1-1.88-1.55-1.14-3.5-3.74-2.6h-2.85s-2.77-.57-3.1-.74-1.44-.59-2.44-1l.7-48.45H440.3l5.87-2.47h8.3l2.45,2.47,2.44-2.47,3.66,4.42h2.69l3.42-2.21,2.1-3.65,1.32,2.93,2.67-2.93,3.58.62C480.25,420,478.22,425.38,478.22,425.38Z"/><path class="cls-6" d="M446.89,516c-.07,1-2.52,1.74-2.52,1.74a13.22,13.22,0,0,1-4.13,3c-2.71,1.29-13.81.58-13.81.58l-2.13,2a45.27,45.27,0,0,1-8.39,9c-4.71,3.62-9.75-2-9.75-2l-1.8-3.35L401,528.24c1.68-6.59-.61-7.84-.61-7.84A6.46,6.46,0,0,0,396.8,525c-.58,3.39-2.61,3.1-2.61,3.1s-3.58-.58-2.71,3.29-1.65,4.55-1.65,4.55l-4.51-4.06s-7.1-1.55-9.81-4.26-4.91.64-6.1,0l.86-60.08c1,.39,2.25.89,2.44,1s3.1.74,3.1.74h2.85l3.74,2.6,1.14,3.5,1.88,1.55.89-1,5,.57.81,2.45v3.42l1.47,1.79,1.55,1.63,4.23,2.85,2.53,5.05,3.25,2,1.55-1.06v-2.2s2.12-.08,2.53,0,3.17.74,4,.9,4.8,2,4.8,2,4.4.24,4.64.39a5.5,5.5,0,0,0,6.44.66c3.66-1.95,6.75,1.06,6.75,1.06a3.26,3.26,0,0,0,.41,3.91c1.71,2,0,4.56,0,4.56l9.37,7.36c0,.29-.07.46-.07.46S447,515.07,446.89,516Z"/><line class="cls-7" x1="254.19" y1="287.13" x2="254.11" y2="285.36"/><line class="cls-7" x1="259.19" y1="395.94" x2="258.28" y2="395.94"/><line class="cls-7" x1="370.97" y1="419.13" x2="370.96" y2="419.13"/><path class="cls-7" d="M370.27,467.58l-1.3-.51"/><path class="cls-8" d="M399.9,554.57l4.06,1.74,4.65,1.74s2.13,2.52,7.17,2.52L418.1,559l5.61-1.45,2.52-1.45,3.87-1.55,1.94,6v5l-1.36,5.62-2.13,5,.2,4.65s.39,4.84.39,5.42a9.23,9.23,0,0,1-1,2.32l-2.71-1.16,1.35-2.32-1.55-3.29-3.48-3.49v4.26l.19,3.49-3.48,3.68L416,591.74l-3.1-1.74-3.29,1.74-.19-4.84s-7.17-6.19-6.59-13l2.71,2.52S394.86,561.54,399.9,554.57Z"/><circle class="cls-9" cx="137.52" cy="452.25" r="4.76"/><circle class="cls-10" cx="399.99" cy="520.79" r="4.76"/><circle class="cls-11" cx="455.48" cy="484.37" r="4.76"/><path class="cls-12" d="M236.36,364.4l5.4-14.31h3.8l5.06,14.31h-3.56l-4.57-13.49,1.7-.15-4.55,13.64Zm3-3.09.71-2.55h6.5l.32,2.55Z"/><path class="cls-12" d="M259,364.85a7.46,7.46,0,0,1-4.95-1.41,5.47,5.47,0,0,1-1.64-4.38v-9h3.63v8.82a3.76,3.76,0,0,0,.66,2.44,2.63,2.63,0,0,0,2.13.79,2.71,2.71,0,0,0,2.07-.79,3.49,3.49,0,0,0,.74-2.44v-8.82H265v9a6.38,6.38,0,0,1-.76,3.27,4.8,4.8,0,0,1-2.09,1.9A7.31,7.31,0,0,1,259,364.85Z"/><path class="cls-12" d="M272.8,364.7a16.55,16.55,0,0,1-2-.11,11.08,11.08,0,0,1-1.64-.32,9.44,9.44,0,0,1-1.45-.56v-3.3a6.86,6.86,0,0,0,2.23,1.2,7.62,7.62,0,0,0,2.36.41,2.59,2.59,0,0,0,1.51-.38,1.31,1.31,0,0,0,.52-1.15,1.11,1.11,0,0,0-.48-.93,4.7,4.7,0,0,0-1.27-.62l-1.78-.61a8.13,8.13,0,0,1-1.23-.5,4.08,4.08,0,0,1-1.07-.76,3.55,3.55,0,0,1-.75-1.12,4.18,4.18,0,0,1-.28-1.63,4.71,4.71,0,0,1,.32-1.7,4.19,4.19,0,0,1,1-1.46,4.81,4.81,0,0,1,1.73-1,7.32,7.32,0,0,1,2.46-.37,9.07,9.07,0,0,1,1.56.11,8,8,0,0,1,1.3.31,9.34,9.34,0,0,1,1.26.52v3.35a8.21,8.21,0,0,0-1.1-.76,7,7,0,0,0-1.28-.59,4.33,4.33,0,0,0-1.39-.26,4,4,0,0,0-1.18.13,1.73,1.73,0,0,0-.84.48,1.21,1.21,0,0,0-.3.85,1.24,1.24,0,0,0,.36.94,2.85,2.85,0,0,0,1,.57l1.44.48a13.86,13.86,0,0,1,1.62.57,5.41,5.41,0,0,1,1.3.78,3.26,3.26,0,0,1,.85,1.16,4.12,4.12,0,0,1,.3,1.65,4.7,4.7,0,0,1-.6,2.35,4.31,4.31,0,0,1-1.73,1.68A5.93,5.93,0,0,1,272.8,364.7Z"/><path class="cls-12" d="M283.37,364.4V352.77h-4v-2.68h11.56v2.68h-4.07V364.4Z"/><path class="cls-12" d="M293,364.4V350.09h7a5.84,5.84,0,0,1,3.8,1.13,4.18,4.18,0,0,1,1.37,3.42,4.62,4.62,0,0,1-.39,1.85,4.18,4.18,0,0,1-1.13,1.57,3.83,3.83,0,0,1-1.89.85l-.21-1.18,4.35,6.67h-4.42l-3.58-6.25,1.54,1.31h-2.94v4.94Zm3.47-7.49h2.92a2.06,2.06,0,0,0,1.46-.49,2.12,2.12,0,0,0,.54-1.63,2.07,2.07,0,0,0-.49-1.5,1.74,1.74,0,0,0-1.36-.52h-3.07Z"/><path class="cls-12" d="M306.92,364.4l5.41-14.31h3.79l5.07,14.31h-3.56l-4.57-13.49,1.69-.15L310.2,364.4Zm3.05-3.09.71-2.55h6.5l.32,2.55Z"/><path class="cls-12" d="M323,364.4V350.09h3.47v11.58h6.22v2.73Z"/><path class="cls-12" d="M334.89,364.4V350.09h3.48V364.4Z"/><path class="cls-12" d="M340.17,364.4l5.4-14.31h3.8l5.06,14.31h-3.56l-4.57-13.49,1.7-.15-4.55,13.64Zm3-3.09.71-2.55h6.5l.32,2.55Z"/><path class="cls-13" d="M332.38,534.23h54.73a0,0,0,0,1,0,0v8.07a3.33,3.33,0,0,1-3.33,3.33h-51.4A3.33,3.33,0,0,1,329,542.3v-4.74A3.33,3.33,0,0,1,332.38,534.23Z"/><polyline class="cls-14" points="399.52 526.86 396.88 534.37 387.11 534.37"/><path class="cls-15" d="M335.9,542.88v-6.31H337l2.26,3.34-.61.07,2.37-3.41h1.07v6.31h-1v-5.42l.29.2-2.4,3.32-2.29-3.3.27-.3v5.5Z"/><path class="cls-15" d="M345.57,543a2.43,2.43,0,0,1-1.21-.28,1.89,1.89,0,0,1-.8-.85,2.94,2.94,0,0,1-.28-1.36,2.76,2.76,0,0,1,.58-1.88,2.12,2.12,0,0,1,1.63-.64,2.07,2.07,0,0,1,1.24.35,1.87,1.87,0,0,1,.68.95,4.33,4.33,0,0,1,.21,1.42h-3.74l0-.74h3l-.24.24a1.78,1.78,0,0,0-.3-1.06,1,1,0,0,0-.86-.34,1.33,1.33,0,0,0-.65.15,1.06,1.06,0,0,0-.4.53,3.19,3.19,0,0,0-.13,1,1.8,1.8,0,0,0,.36,1.21,1.41,1.41,0,0,0,1.09.41,2.77,2.77,0,0,0,.6-.06,2.63,2.63,0,0,0,.52-.14,4.14,4.14,0,0,0,.41-.18v.92a4.43,4.43,0,0,1-.75.23A4.48,4.48,0,0,1,345.57,543Z"/><path class="cls-15" d="M349.74,542.88h-1v-6.55h1Z"/><path class="cls-15" d="M353.15,543a6,6,0,0,1-.75,0,2.4,2.4,0,0,1-.64-.16,1.1,1.1,0,0,1-.45-.33.85.85,0,0,1-.17-.54v-5.71h1v2.56l-.26-.32a1.59,1.59,0,0,1,.45-.24,5.62,5.62,0,0,1,.55-.15,2.4,2.4,0,0,1,.48-.06,2,2,0,0,1,1.62.64,2.72,2.72,0,0,1,.54,1.8,3.3,3.3,0,0,1-.21,1.27,1.83,1.83,0,0,1-.53.78,2.06,2.06,0,0,1-.76.4A3.56,3.56,0,0,1,353.15,543Zm0-.86a1.45,1.45,0,0,0,.87-.23,1.11,1.11,0,0,0,.41-.6,2.76,2.76,0,0,0,.11-.84,2.34,2.34,0,0,0-.14-.89,1.09,1.09,0,0,0-.42-.54,1.28,1.28,0,0,0-.73-.19,2.7,2.7,0,0,0-.54.06,2.25,2.25,0,0,0-.53.21v2.56a.34.34,0,0,0,.15.29,1,1,0,0,0,.37.14Z"/><path class="cls-15" d="M358.7,543a2.16,2.16,0,0,1-1.72-.65,2.77,2.77,0,0,1-.56-1.87,2.61,2.61,0,0,1,.58-1.88,2.21,2.21,0,0,1,1.68-.61,2.62,2.62,0,0,1,1.29.29,1.8,1.8,0,0,1,.76.85,3.39,3.39,0,0,1,.25,1.35,2.71,2.71,0,0,1-.59,1.86A2.16,2.16,0,0,1,358.7,543Zm0-.84a1.25,1.25,0,0,0,.76-.21,1.18,1.18,0,0,0,.41-.6,2.57,2.57,0,0,0,.13-.87,2.66,2.66,0,0,0-.13-.91,1.1,1.1,0,0,0-.42-.56,1.39,1.39,0,0,0-.75-.18,1.24,1.24,0,0,0-.76.2,1.07,1.07,0,0,0-.41.56,3,3,0,0,0-.12.89,2.24,2.24,0,0,0,.29,1.23A1.11,1.11,0,0,0,358.69,542.18Z"/><path class="cls-15" d="M364.23,543a2.73,2.73,0,0,1-1.12-.21,1.6,1.6,0,0,1-.72-.64,2,2,0,0,1-.26-1.06v-3h1V541a1.31,1.31,0,0,0,.26.89,1.36,1.36,0,0,0,1.68,0,1.26,1.26,0,0,0,.27-.89v-2.84h1v3a1.82,1.82,0,0,1-.55,1.43A2.22,2.22,0,0,1,364.23,543Z"/><path class="cls-15" d="M367.7,542.88v-4.32a2.63,2.63,0,0,1,.45-.2,5,5,0,0,1,.79-.24,4.61,4.61,0,0,1,.91-.1,2,2,0,0,1,.39,0l.26.09v.79l-.46,0h-.47l-.46,0-.42.06v3.88Z"/><path class="cls-15" d="M371.47,538.52a4.15,4.15,0,0,1,.47-.2,4.41,4.41,0,0,1,.55-.15c.2,0,.4-.08.6-.11s.4,0,.59,0a2.8,2.8,0,0,1,1.09.19,1.24,1.24,0,0,1,.64.57,2,2,0,0,1,.21,1v3.14h-1v-3a1.47,1.47,0,0,0,0-.36.76.76,0,0,0-.5-.55,1.59,1.59,0,0,0-.58-.08,3.23,3.23,0,0,0-.53,0,3.29,3.29,0,0,0-.5.14v3.82h-1Z"/><path class="cls-15" d="M379.06,543a2.43,2.43,0,0,1-1.21-.28,1.89,1.89,0,0,1-.8-.85,2.94,2.94,0,0,1-.28-1.36,2.76,2.76,0,0,1,.58-1.88A2.12,2.12,0,0,1,379,538a2.07,2.07,0,0,1,1.24.35,1.87,1.87,0,0,1,.68.95,4.1,4.1,0,0,1,.2,1.42h-3.73l0-.74h3l-.24.24a1.78,1.78,0,0,0-.3-1.06,1,1,0,0,0-.86-.34,1.3,1.3,0,0,0-.65.15,1.06,1.06,0,0,0-.4.53,3.19,3.19,0,0,0-.13,1,1.8,1.8,0,0,0,.36,1.21,1.41,1.41,0,0,0,1.09.41,2.77,2.77,0,0,0,.6-.06,2.63,2.63,0,0,0,.52-.14,4.14,4.14,0,0,0,.41-.18v.92a4.73,4.73,0,0,1-.75.23A4.48,4.48,0,0,1,379.06,543Z"/><path class="cls-16" d="M473.94,494.62h33.17a2.71,2.71,0,0,1,2.71,2.71V506a0,0,0,0,1,0,0H473.94a2.71,2.71,0,0,1-2.71-2.71v-6A2.71,2.71,0,0,1,473.94,494.62Z" transform="translate(981.05 1000.64) rotate(-180)"/><polyline class="cls-14" points="457.97 489.44 461.45 494.75 471.23 494.75"/><path class="cls-15" d="M477.9,503.3a5.17,5.17,0,0,1-.84-.06,3.09,3.09,0,0,1-.65-.16,6.37,6.37,0,0,1-.6-.28v-1a3,3,0,0,0,.89.49,3.48,3.48,0,0,0,1.13.18,1.38,1.38,0,0,0,.88-.24.81.81,0,0,0,.28-.66.72.72,0,0,0-.21-.54,1.78,1.78,0,0,0-.56-.34l-.75-.29q-.3-.11-.6-.24a2.2,2.2,0,0,1-.53-.32,1.45,1.45,0,0,1-.37-.5,1.67,1.67,0,0,1-.15-.75,1.62,1.62,0,0,1,.13-.63,1.64,1.64,0,0,1,.37-.58,2,2,0,0,1,.66-.42,3,3,0,0,1,1-.15,4.33,4.33,0,0,1,.66,0,2.31,2.31,0,0,1,.53.15l.54.24v1c-.15-.1-.31-.19-.47-.28a3.11,3.11,0,0,0-.53-.22,2.45,2.45,0,0,0-.63-.09,1.6,1.6,0,0,0-.66.09.82.82,0,0,0-.38.29.77.77,0,0,0-.14.44.8.8,0,0,0,.17.53,1.3,1.3,0,0,0,.47.32c.2.08.43.17.7.25s.46.16.68.25a2.63,2.63,0,0,1,.59.35,1.59,1.59,0,0,1,.41.51,1.65,1.65,0,0,1,.15.74,2,2,0,0,1-.22.93,1.74,1.74,0,0,1-.7.7A2.5,2.5,0,0,1,477.9,503.3Z"/><path class="cls-15" d="M482,505a1.27,1.27,0,0,1-.34,0,1.15,1.15,0,0,1-.28-.08v-.85l.23.07a.88.88,0,0,0,.24,0,.67.67,0,0,0,.47-.16,1.14,1.14,0,0,0,.33-.43,2.87,2.87,0,0,0,.21-.68l0,.49-2-4.94H482l1.37,3.75h-.15l1.36-3.75h1l-2,5a3.75,3.75,0,0,1-.51.95,1.54,1.54,0,0,1-.56.46A1.36,1.36,0,0,1,482,505Z"/><path class="cls-15" d="M488.36,503.33a3.05,3.05,0,0,1-.85-.11,2,2,0,0,1-.76-.38,2.08,2.08,0,0,1-.54-.78,3.68,3.68,0,0,1-.19-1.3,2.72,2.72,0,0,1,.54-1.78,2,2,0,0,1,1.67-.65,1.91,1.91,0,0,1,.44.05,3.53,3.53,0,0,1,.54.13,1.72,1.72,0,0,1,.47.23l-.26.34v-2.63h1v5.75a.8.8,0,0,1-.19.51,1.31,1.31,0,0,1-.49.35,2.68,2.68,0,0,1-.66.21A4.25,4.25,0,0,1,488.36,503.33Zm0-.86a2.26,2.26,0,0,0,.73-.1c.2-.07.3-.16.3-.28v-2.64a1.93,1.93,0,0,0-.52-.2,2,2,0,0,0-.53-.07,1.45,1.45,0,0,0-.76.18,1.12,1.12,0,0,0-.44.54,2.29,2.29,0,0,0-.14.88,3.18,3.18,0,0,0,.11.85,1.22,1.22,0,0,0,.41.62A1.38,1.38,0,0,0,488.39,502.47Z"/><path class="cls-15" d="M491.81,498.83c.14-.07.29-.13.47-.2s.35-.11.55-.15a3.76,3.76,0,0,1,.6-.1,3.86,3.86,0,0,1,.58,0,2.84,2.84,0,0,1,1.1.18,1.25,1.25,0,0,1,.63.57,2,2,0,0,1,.21,1v3.14h-1v-3a2,2,0,0,0,0-.35.88.88,0,0,0-.16-.32.84.84,0,0,0-.35-.24,1.8,1.8,0,0,0-.58-.08,2.35,2.35,0,0,0-.52.05,2.72,2.72,0,0,0-.51.13v3.82h-1Z"/><path class="cls-15" d="M499.4,503.33a2.47,2.47,0,0,1-1.22-.28,1.89,1.89,0,0,1-.79-.84,3,3,0,0,1-.28-1.37,2.67,2.67,0,0,1,.58-1.87,2.4,2.4,0,0,1,2.86-.3,1.87,1.87,0,0,1,.69.95,4.13,4.13,0,0,1,.2,1.42H497.7l0-.74h3l-.23.24a1.74,1.74,0,0,0-.31-1.06,1,1,0,0,0-.86-.34,1.19,1.19,0,0,0-.64.16.93.93,0,0,0-.4.53,2.84,2.84,0,0,0-.14,1,1.74,1.74,0,0,0,.37,1.21,1.4,1.4,0,0,0,1.09.41,3.83,3.83,0,0,0,.6-.05,3.41,3.41,0,0,0,.51-.15,3.31,3.31,0,0,0,.41-.18V503a3.68,3.68,0,0,1-.75.23A4.38,4.38,0,0,1,499.4,503.33Z"/><path class="cls-15" d="M503,505a1.27,1.27,0,0,1-.34,0,1,1,0,0,1-.28-.08v-.85l.22.07a1,1,0,0,0,.25,0,.67.67,0,0,0,.47-.16,1,1,0,0,0,.32-.43,2.86,2.86,0,0,0,.22-.68l0,.49-2-4.94H503l1.37,3.75h-.14l1.36-3.75h1l-2,5a3.75,3.75,0,0,1-.51.95,1.56,1.56,0,0,1-.57.46A1.32,1.32,0,0,1,503,505Z"/><path class="cls-17" d="M88.17,424.15h33.17a2.71,2.71,0,0,1,2.71,2.71v8.68a0,0,0,0,1,0,0H88.17a2.71,2.71,0,0,1-2.71-2.71v-6A2.71,2.71,0,0,1,88.17,424.15Z"/><path class="cls-15" d="M94,430.6v2.27H93v-6.32h2.5a2.52,2.52,0,0,1,1.67.5,1.85,1.85,0,0,1,.59,1.5,1.91,1.91,0,0,1-.59,1.52,2.38,2.38,0,0,1-1.67.53Zm0-.89h1.33a2,2,0,0,0,.66-.09,1,1,0,0,0,.4-.25.87.87,0,0,0,.19-.37,1.4,1.4,0,0,0,.05-.41,1.54,1.54,0,0,0-.05-.43.87.87,0,0,0-.19-.37,1,1,0,0,0-.4-.26,1.76,1.76,0,0,0-.66-.1H94Z"/><path class="cls-15" d="M101,433a2.5,2.5,0,0,1-1.22-.29,1.89,1.89,0,0,1-.79-.84,3,3,0,0,1-.28-1.36,2.7,2.7,0,0,1,.58-1.88,2.07,2.07,0,0,1,1.62-.64,2.12,2.12,0,0,1,1.24.34,1.92,1.92,0,0,1,.69,1,4.15,4.15,0,0,1,.2,1.43H99.26l0-.74h3l-.23.24a1.84,1.84,0,0,0-.3-1.07,1.09,1.09,0,0,0-.87-.33,1.29,1.29,0,0,0-.64.15,1,1,0,0,0-.4.53,3.11,3.11,0,0,0-.14,1,1.71,1.71,0,0,0,.37,1.2,1.38,1.38,0,0,0,1.09.42,2.91,2.91,0,0,0,.6-.06,3.09,3.09,0,0,0,.51-.15l.41-.17v.92a4.43,4.43,0,0,1-.75.23A4.38,4.38,0,0,1,101,433Z"/><path class="cls-15" d="M104.15,432.87v-4.32a3.42,3.42,0,0,1,.45-.21,5.07,5.07,0,0,1,.79-.23,4,4,0,0,1,.91-.1,1.41,1.41,0,0,1,.39,0,1.34,1.34,0,0,1,.26.08v.8l-.46,0H106l-.46,0-.42.06v3.88Z"/><path class="cls-15" d="M109.62,433a1.45,1.45,0,0,1-1-.34,1.29,1.29,0,0,1-.37-1v-2.7h-.77v-.82h.77v-1.33h1v1.33h1.15v.82h-1.15v2.51a.82.82,0,0,0,.12.49.49.49,0,0,0,.44.17,1.87,1.87,0,0,0,.32,0,1.38,1.38,0,0,0,.27-.11v.88a1.89,1.89,0,0,1-.38.11A1.94,1.94,0,0,1,109.62,433Z"/><path class="cls-15" d="M111.56,432.87v-6.76h1v2.71l-.29-.24a3.08,3.08,0,0,1,.81-.41A2.57,2.57,0,0,1,114,428a2.19,2.19,0,0,1,1,.2,1.35,1.35,0,0,1,.62.61,2.47,2.47,0,0,1,.22,1.1v2.95h-1V430a1.26,1.26,0,0,0-.27-.87,1,1,0,0,0-.81-.31,2,2,0,0,0-.58.09,2.55,2.55,0,0,0-.54.22v3.7Z"/><polyline class="cls-14" points="137.52 446.44 133.82 435.54 124.05 435.54"/><path class="cls-18" d="M137.52,452.25C183.78,408.87,390,345.35,400,520.79"/><path class="cls-18" d="M455.48,484.37C393.32,307.24,169,411,137.52,452.25"/><path class="cls-18" d="M400,520.79c3.58-39,36.16-50.8,55.66-36.42"/></svg>