<?xml version="1.0" encoding="UTF-8" standalone="no"?>
<svg
   xmlns:dc="http://purl.org/dc/elements/1.1/"
   xmlns:cc="http://creativecommons.org/ns#"
   xmlns:rdf="http://www.w3.org/1999/02/22-rdf-syntax-ns#"
   xmlns:svg="http://www.w3.org/2000/svg"
   xmlns="http://www.w3.org/2000/svg"
   viewBox="0 0 1333.3333 1333.3333"
   height="1333.3333"
   width="1333.3333"
   xml:space="preserve"
   id="svg2"
   version="1.1"><metadata
     id="metadata8"><rdf:RDF><cc:Work
         rdf:about=""><dc:format>image/svg+xml</dc:format><dc:type
           rdf:resource="http://purl.org/dc/dcmitype/StillImage" /></cc:Work></rdf:RDF></metadata><defs
     id="defs6"><linearGradient
       id="linearGradient38"
       spreadMethod="pad"
       gradientTransform="matrix(-2.3323526,-105.73333,-105.73333,2.3323526,220.10005,402.91937)"
       gradientUnits="userSpaceOnUse"
       y2="0"
       x2="1"
       y1="0"
       x1="0"><stop
         id="stop24"
         offset="0"
         style="stop-opacity:1;stop-color:#facb3b" /><stop
         id="stop26"
         offset="0.00372688"
         style="stop-opacity:1;stop-color:#facb3b" /><stop
         id="stop28"
         offset="0.219786"
         style="stop-opacity:1;stop-color:#ea8f3f" /><stop
         id="stop30"
         offset="0.469886"
         style="stop-opacity:1;stop-color:#de513e" /><stop
         id="stop32"
         offset="0.614776"
         style="stop-opacity:1;stop-color:#c94563" /><stop
         id="stop34"
         offset="0.834343"
         style="stop-opacity:1;stop-color:#7c4e94" /><stop
         id="stop36"
         offset="1"
         style="stop-opacity:1;stop-color:#554893" /></linearGradient><linearGradient
       id="linearGradient68"
       spreadMethod="pad"
       gradientTransform="matrix(-2.3313401,-105.68742,-105.68742,2.3313401,248.84502,402.20996)"
       gradientUnits="userSpaceOnUse"
       y2="0"
       x2="1"
       y1="0"
       x1="0"><stop
         id="stop54"
         offset="0"
         style="stop-opacity:1;stop-color:#facb3b" /><stop
         id="stop56"
         offset="0.00372688"
         style="stop-opacity:1;stop-color:#facb3b" /><stop
         id="stop58"
         offset="0.219786"
         style="stop-opacity:1;stop-color:#ea8f3f" /><stop
         id="stop60"
         offset="0.469886"
         style="stop-opacity:1;stop-color:#de513e" /><stop
         id="stop62"
         offset="0.614776"
         style="stop-opacity:1;stop-color:#c94563" /><stop
         id="stop64"
         offset="0.834343"
         style="stop-opacity:1;stop-color:#7c4e94" /><stop
         id="stop66"
         offset="1"
         style="stop-opacity:1;stop-color:#554893" /></linearGradient><linearGradient
       id="linearGradient98"
       spreadMethod="pad"
       gradientTransform="matrix(-2.330406,-105.64507,-105.64507,2.330406,279.00369,401.46866)"
       gradientUnits="userSpaceOnUse"
       y2="0"
       x2="1"
       y1="0"
       x1="0"><stop
         id="stop84"
         offset="0"
         style="stop-opacity:1;stop-color:#facb3b" /><stop
         id="stop86"
         offset="0.00372688"
         style="stop-opacity:1;stop-color:#facb3b" /><stop
         id="stop88"
         offset="0.219786"
         style="stop-opacity:1;stop-color:#ea8f3f" /><stop
         id="stop90"
         offset="0.469886"
         style="stop-opacity:1;stop-color:#de513e" /><stop
         id="stop92"
         offset="0.614776"
         style="stop-opacity:1;stop-color:#c94563" /><stop
         id="stop94"
         offset="0.834343"
         style="stop-opacity:1;stop-color:#7c4e94" /><stop
         id="stop96"
         offset="1"
         style="stop-opacity:1;stop-color:#554893" /></linearGradient><linearGradient
       id="linearGradient128"
       spreadMethod="pad"
       gradientTransform="matrix(-2.3285689,-105.56179,-105.56179,2.3285689,325.69315,400.35129)"
       gradientUnits="userSpaceOnUse"
       y2="0"
       x2="1"
       y1="0"
       x1="0"><stop
         id="stop114"
         offset="0"
         style="stop-opacity:1;stop-color:#facb3b" /><stop
         id="stop116"
         offset="0.00372688"
         style="stop-opacity:1;stop-color:#facb3b" /><stop
         id="stop118"
         offset="0.219786"
         style="stop-opacity:1;stop-color:#ea8f3f" /><stop
         id="stop120"
         offset="0.469886"
         style="stop-opacity:1;stop-color:#de513e" /><stop
         id="stop122"
         offset="0.614776"
         style="stop-opacity:1;stop-color:#c94563" /><stop
         id="stop124"
         offset="0.834343"
         style="stop-opacity:1;stop-color:#7c4e94" /><stop
         id="stop126"
         offset="1"
         style="stop-opacity:1;stop-color:#554893" /></linearGradient><linearGradient
       id="linearGradient158"
       spreadMethod="pad"
       gradientTransform="matrix(-2.3299248,-105.62326,-105.62326,2.3299248,372.19681,399.26678)"
       gradientUnits="userSpaceOnUse"
       y2="0"
       x2="1"
       y1="0"
       x1="0"><stop
         id="stop144"
         offset="0"
         style="stop-opacity:1;stop-color:#facb3b" /><stop
         id="stop146"
         offset="0.00372688"
         style="stop-opacity:1;stop-color:#facb3b" /><stop
         id="stop148"
         offset="0.219786"
         style="stop-opacity:1;stop-color:#ea8f3f" /><stop
         id="stop150"
         offset="0.469886"
         style="stop-opacity:1;stop-color:#de513e" /><stop
         id="stop152"
         offset="0.614776"
         style="stop-opacity:1;stop-color:#c94563" /><stop
         id="stop154"
         offset="0.834343"
         style="stop-opacity:1;stop-color:#7c4e94" /><stop
         id="stop156"
         offset="1"
         style="stop-opacity:1;stop-color:#554893" /></linearGradient><linearGradient
       id="linearGradient188"
       spreadMethod="pad"
       gradientTransform="matrix(-2.3313758,-105.68904,-105.68904,2.3313758,420.85776,398.18518)"
       gradientUnits="userSpaceOnUse"
       y2="0"
       x2="1"
       y1="0"
       x1="0"><stop
         id="stop174"
         offset="0"
         style="stop-opacity:1;stop-color:#facb3b" /><stop
         id="stop176"
         offset="0.00372688"
         style="stop-opacity:1;stop-color:#facb3b" /><stop
         id="stop178"
         offset="0.219786"
         style="stop-opacity:1;stop-color:#ea8f3f" /><stop
         id="stop180"
         offset="0.469886"
         style="stop-opacity:1;stop-color:#de513e" /><stop
         id="stop182"
         offset="0.614776"
         style="stop-opacity:1;stop-color:#c94563" /><stop
         id="stop184"
         offset="0.834343"
         style="stop-opacity:1;stop-color:#7c4e94" /><stop
         id="stop186"
         offset="1"
         style="stop-opacity:1;stop-color:#554893" /></linearGradient><linearGradient
       id="linearGradient218"
       spreadMethod="pad"
       gradientTransform="matrix(-2.3313401,-105.68742,-105.68742,2.3313401,454.87411,397.35516)"
       gradientUnits="userSpaceOnUse"
       y2="0"
       x2="1"
       y1="0"
       x1="0"><stop
         id="stop204"
         offset="0"
         style="stop-opacity:1;stop-color:#facb3b" /><stop
         id="stop206"
         offset="0.00372688"
         style="stop-opacity:1;stop-color:#facb3b" /><stop
         id="stop208"
         offset="0.219786"
         style="stop-opacity:1;stop-color:#ea8f3f" /><stop
         id="stop210"
         offset="0.469886"
         style="stop-opacity:1;stop-color:#de513e" /><stop
         id="stop212"
         offset="0.614776"
         style="stop-opacity:1;stop-color:#c94563" /><stop
         id="stop214"
         offset="0.834343"
         style="stop-opacity:1;stop-color:#7c4e94" /><stop
         id="stop216"
         offset="1"
         style="stop-opacity:1;stop-color:#554893" /></linearGradient><linearGradient
       id="linearGradient248"
       spreadMethod="pad"
       gradientTransform="matrix(-2.3313758,-105.68904,-105.68904,2.3313758,488.79407,396.58432)"
       gradientUnits="userSpaceOnUse"
       y2="0"
       x2="1"
       y1="0"
       x1="0"><stop
         id="stop234"
         offset="0"
         style="stop-opacity:1;stop-color:#facb3b" /><stop
         id="stop236"
         offset="0.00372688"
         style="stop-opacity:1;stop-color:#facb3b" /><stop
         id="stop238"
         offset="0.219786"
         style="stop-opacity:1;stop-color:#ea8f3f" /><stop
         id="stop240"
         offset="0.469886"
         style="stop-opacity:1;stop-color:#de513e" /><stop
         id="stop242"
         offset="0.614776"
         style="stop-opacity:1;stop-color:#c94563" /><stop
         id="stop244"
         offset="0.834343"
         style="stop-opacity:1;stop-color:#7c4e94" /><stop
         id="stop246"
         offset="1"
         style="stop-opacity:1;stop-color:#554893" /></linearGradient><linearGradient
       id="linearGradient278"
       spreadMethod="pad"
       gradientTransform="matrix(-2.330406,-105.64507,-105.64507,2.330406,537.19128,395.38724)"
       gradientUnits="userSpaceOnUse"
       y2="0"
       x2="1"
       y1="0"
       x1="0"><stop
         id="stop264"
         offset="0"
         style="stop-opacity:1;stop-color:#facb3b" /><stop
         id="stop266"
         offset="0.00372688"
         style="stop-opacity:1;stop-color:#facb3b" /><stop
         id="stop268"
         offset="0.219786"
         style="stop-opacity:1;stop-color:#ea8f3f" /><stop
         id="stop270"
         offset="0.469886"
         style="stop-opacity:1;stop-color:#de513e" /><stop
         id="stop272"
         offset="0.614776"
         style="stop-opacity:1;stop-color:#c94563" /><stop
         id="stop274"
         offset="0.834343"
         style="stop-opacity:1;stop-color:#7c4e94" /><stop
         id="stop276"
         offset="1"
         style="stop-opacity:1;stop-color:#554893" /></linearGradient><linearGradient
       id="linearGradient298"
       spreadMethod="pad"
       gradientTransform="matrix(0,-47.649872,-47.649872,0,581.46411,381.3291)"
       gradientUnits="userSpaceOnUse"
       y2="0"
       x2="1"
       y1="0"
       x1="0"><stop
         id="stop294"
         offset="0"
         style="stop-opacity:1;stop-color:#53a2bd" /><stop
         id="stop296"
         offset="1"
         style="stop-opacity:1;stop-color:#314162" /></linearGradient><linearGradient
       id="linearGradient318"
       spreadMethod="pad"
       gradientTransform="matrix(0,-47.649872,-47.649872,0,625.20294,381.3291)"
       gradientUnits="userSpaceOnUse"
       y2="0"
       x2="1"
       y1="0"
       x1="0"><stop
         id="stop314"
         offset="0"
         style="stop-opacity:1;stop-color:#53a2bd" /><stop
         id="stop316"
         offset="1"
         style="stop-opacity:1;stop-color:#314162" /></linearGradient><linearGradient
       id="linearGradient338"
       spreadMethod="pad"
       gradientTransform="matrix(0,-47.649872,-47.649872,0,670.35858,381.3291)"
       gradientUnits="userSpaceOnUse"
       y2="0"
       x2="1"
       y1="0"
       x1="0"><stop
         id="stop334"
         offset="0"
         style="stop-opacity:1;stop-color:#53a2bd" /><stop
         id="stop336"
         offset="1"
         style="stop-opacity:1;stop-color:#314162" /></linearGradient><linearGradient
       id="linearGradient358"
       spreadMethod="pad"
       gradientTransform="matrix(0,-47.649872,-47.649872,0,729.4646,381.3291)"
       gradientUnits="userSpaceOnUse"
       y2="0"
       x2="1"
       y1="0"
       x1="0"><stop
         id="stop354"
         offset="0"
         style="stop-opacity:1;stop-color:#53a2bd" /><stop
         id="stop356"
         offset="1"
         style="stop-opacity:1;stop-color:#314162" /></linearGradient><linearGradient
       id="linearGradient378"
       spreadMethod="pad"
       gradientTransform="matrix(229.48918,1.5936749,1.5936749,-229.48918,210.56134,473.11829)"
       gradientUnits="userSpaceOnUse"
       y2="0"
       x2="1"
       y1="0"
       x1="0"><stop
         id="stop374"
         offset="0"
         style="stop-opacity:1;stop-color:#53a2bd" /><stop
         id="stop376"
         offset="1"
         style="stop-opacity:1;stop-color:#314162" /></linearGradient><linearGradient
       id="linearGradient398"
       spreadMethod="pad"
       gradientTransform="matrix(-103.65817,-197.20335,-197.20335,103.65817,318.73981,647.39362)"
       gradientUnits="userSpaceOnUse"
       y2="0"
       x2="1"
       y1="0"
       x1="0"><stop
         id="stop394"
         offset="0"
         style="stop-opacity:1;stop-color:#53a2bd" /><stop
         id="stop396"
         offset="1"
         style="stop-opacity:1;stop-color:#314162" /></linearGradient><linearGradient
       id="linearGradient418"
       spreadMethod="pad"
       gradientTransform="matrix(-205.87746,158.42914,158.42914,205.87746,420.38776,504.18207)"
       gradientUnits="userSpaceOnUse"
       y2="0"
       x2="1"
       y1="0"
       x1="0"><stop
         id="stop414"
         offset="0"
         style="stop-opacity:1;stop-color:#53a2bd" /><stop
         id="stop416"
         offset="1"
         style="stop-opacity:1;stop-color:#314162" /></linearGradient><linearGradient
       id="linearGradient438"
       spreadMethod="pad"
       gradientTransform="matrix(63.45861,-151.64136,-151.64136,-63.45861,560.30536,560.33594)"
       gradientUnits="userSpaceOnUse"
       y2="0"
       x2="1"
       y1="0"
       x1="0"><stop
         id="stop434"
         offset="0"
         style="stop-opacity:1;stop-color:#53a2bd" /><stop
         id="stop436"
         offset="1"
         style="stop-opacity:1;stop-color:#314162" /></linearGradient><linearGradient
       id="linearGradient458"
       spreadMethod="pad"
       gradientTransform="matrix(-51.884514,120.2403,120.2403,51.884514,396.69836,522.26447)"
       gradientUnits="userSpaceOnUse"
       y2="0"
       x2="1"
       y1="0"
       x1="0"><stop
         id="stop454"
         offset="0"
         style="stop-opacity:1;stop-color:#53a2bd" /><stop
         id="stop456"
         offset="1"
         style="stop-opacity:1;stop-color:#314162" /></linearGradient><linearGradient
       id="linearGradient488"
       spreadMethod="pad"
       gradientTransform="matrix(-282.28751,-373.50284,-373.50284,282.28751,559.49023,640.88007)"
       gradientUnits="userSpaceOnUse"
       y2="0"
       x2="1"
       y1="0"
       x1="0"><stop
         id="stop474"
         offset="0"
         style="stop-opacity:1;stop-color:#facb3b" /><stop
         id="stop476"
         offset="0.00372688"
         style="stop-opacity:1;stop-color:#facb3b" /><stop
         id="stop478"
         offset="0.219786"
         style="stop-opacity:1;stop-color:#ea8f3f" /><stop
         id="stop480"
         offset="0.469886"
         style="stop-opacity:1;stop-color:#de513e" /><stop
         id="stop482"
         offset="0.614776"
         style="stop-opacity:1;stop-color:#c94563" /><stop
         id="stop484"
         offset="0.834343"
         style="stop-opacity:1;stop-color:#7c4e94" /><stop
         id="stop486"
         offset="1"
         style="stop-opacity:1;stop-color:#554893" /></linearGradient><linearGradient
       id="linearGradient508"
       spreadMethod="pad"
       gradientTransform="matrix(-255.06836,32.680633,32.680633,255.06836,772.92773,576.47455)"
       gradientUnits="userSpaceOnUse"
       y2="0"
       x2="1"
       y1="0"
       x1="0"><stop
         id="stop504"
         offset="0"
         style="stop-opacity:1;stop-color:#53a2bd" /><stop
         id="stop506"
         offset="1"
         style="stop-opacity:1;stop-color:#314162" /></linearGradient><linearGradient
       id="linearGradient528"
       spreadMethod="pad"
       gradientTransform="matrix(216.30386,-112.95869,-112.95869,-216.30386,538.20551,547.78314)"
       gradientUnits="userSpaceOnUse"
       y2="0"
       x2="1"
       y1="0"
       x1="0"><stop
         id="stop524"
         offset="0"
         style="stop-opacity:1;stop-color:#53a2bd" /><stop
         id="stop526"
         offset="1"
         style="stop-opacity:1;stop-color:#314162" /></linearGradient><linearGradient
       id="linearGradient548"
       spreadMethod="pad"
       gradientTransform="matrix(143.3925,174.41895,174.41895,-143.3925,616.54712,431.49496)"
       gradientUnits="userSpaceOnUse"
       y2="0"
       x2="1"
       y1="0"
       x1="0"><stop
         id="stop544"
         offset="0"
         style="stop-opacity:1;stop-color:#53a2bd" /><stop
         id="stop546"
         offset="1"
         style="stop-opacity:1;stop-color:#314162" /></linearGradient><clipPath
       id="clipPath558"
       clipPathUnits="userSpaceOnUse"><path
         id="path556"
         d="M 0,1000 H 1000 V 0 H 0 Z" /></clipPath><clipPath
       id="clipPath566"
       clipPathUnits="userSpaceOnUse"><path
         id="path564"
         d="M 505.581,652.642 H 607.282 V 536.519 H 505.581 Z" /></clipPath><linearGradient
       id="linearGradient578"
       spreadMethod="pad"
       gradientTransform="matrix(-175.62421,48.475456,48.475456,175.62421,634.01703,578.64288)"
       gradientUnits="userSpaceOnUse"
       y2="0"
       x2="1"
       y1="0"
       x1="0"><stop
         id="stop572"
         offset="0"
         style="stop-opacity:1;stop-color:#ffffff" /><stop
         id="stop574"
         offset="0.5033869"
         style="stop-opacity:1;stop-color:#ffffff" /><stop
         id="stop576"
         offset="1"
         style="stop-opacity:1;stop-color:#292929" /></linearGradient><clipPath
       id="clipPath600"
       clipPathUnits="userSpaceOnUse"><path
         id="path598"
         d="M 353.786,536.303 H 455.487 V 420.179 H 353.786 Z" /></clipPath><linearGradient
       id="linearGradient612"
       spreadMethod="pad"
       gradientTransform="matrix(300.55725,-44.467476,-44.467476,-300.55725,291.97327,491.9736)"
       gradientUnits="userSpaceOnUse"
       y2="0"
       x2="1"
       y1="0"
       x1="0"><stop
         id="stop606"
         offset="0"
         style="stop-opacity:1;stop-color:#ffffff" /><stop
         id="stop608"
         offset="0.51382913"
         style="stop-opacity:1;stop-color:#ffffff" /><stop
         id="stop610"
         offset="1"
         style="stop-opacity:1;stop-color:#292929" /></linearGradient><clipPath
       id="clipPath634"
       clipPathUnits="userSpaceOnUse"><path
         id="path632"
         d="M 657.174,610.308 H 762.308 V 557.563 H 657.174 Z" /></clipPath><linearGradient
       id="linearGradient646"
       spreadMethod="pad"
       gradientTransform="matrix(-21.603409,111.99662,111.99662,21.603409,716.55157,544.78394)"
       gradientUnits="userSpaceOnUse"
       y2="0"
       x2="1"
       y1="0"
       x1="0"><stop
         id="stop640"
         offset="0"
         style="stop-opacity:1;stop-color:#ffffff" /><stop
         id="stop642"
         offset="0.5033869"
         style="stop-opacity:1;stop-color:#ffffff" /><stop
         id="stop644"
         offset="1"
         style="stop-opacity:1;stop-color:#292929" /></linearGradient><clipPath
       id="clipPath668"
       clipPathUnits="userSpaceOnUse"><path
         id="path666"
         d="M 480.535,496.479 H 702.116 V 459.85 H 480.535 Z" /></clipPath><linearGradient
       id="linearGradient680"
       spreadMethod="pad"
       gradientTransform="matrix(195.61082,-150.78334,-150.78334,-195.61082,534.47778,530.04694)"
       gradientUnits="userSpaceOnUse"
       y2="0"
       x2="1"
       y1="0"
       x1="0"><stop
         id="stop674"
         offset="0"
         style="stop-opacity:1;stop-color:#ffffff" /><stop
         id="stop676"
         offset="0.5033869"
         style="stop-opacity:1;stop-color:#ffffff" /><stop
         id="stop678"
         offset="1"
         style="stop-opacity:1;stop-color:#292929" /></linearGradient><clipPath
       id="clipPath702"
       clipPathUnits="userSpaceOnUse"><path
         id="path700"
         d="m 480.548,536.306 h 77.149 v -47.128 h -77.149 z" /></clipPath><linearGradient
       id="linearGradient714"
       spreadMethod="pad"
       gradientTransform="matrix(-41.578682,65.675415,65.675415,41.578682,537.58478,483.40848)"
       gradientUnits="userSpaceOnUse"
       y2="0"
       x2="1"
       y1="0"
       x1="0"><stop
         id="stop708"
         offset="0"
         style="stop-opacity:1;stop-color:#ffffff" /><stop
         id="stop710"
         offset="0.5033869"
         style="stop-opacity:1;stop-color:#ffffff" /><stop
         id="stop712"
         offset="1"
         style="stop-opacity:1;stop-color:#292929" /></linearGradient><clipPath
       id="clipPath736"
       clipPathUnits="userSpaceOnUse"><path
         id="path734"
         d="m 403.374,583.646 h 77.149 v -47.128 h -77.149 z" /></clipPath><linearGradient
       id="linearGradient748"
       spreadMethod="pad"
       gradientTransform="matrix(62.883053,-80.213036,-80.213036,-62.883053,418.33368,590.37769)"
       gradientUnits="userSpaceOnUse"
       y2="0"
       x2="1"
       y1="0"
       x1="0"><stop
         id="stop742"
         offset="0"
         style="stop-opacity:1;stop-color:#ffffff" /><stop
         id="stop744"
         offset="0.5033869"
         style="stop-opacity:1;stop-color:#ffffff" /><stop
         id="stop746"
         offset="1"
         style="stop-opacity:1;stop-color:#292929" /></linearGradient><clipPath
       id="clipPath770"
       clipPathUnits="userSpaceOnUse"><path
         id="path768"
         d="m 199.643,511.113 h 107.27 V 462.26 h -107.27 z" /></clipPath><linearGradient
       id="linearGradient782"
       spreadMethod="pad"
       gradientTransform="matrix(40.366844,-111.62669,-111.62669,-40.366844,242.83005,518.93323)"
       gradientUnits="userSpaceOnUse"
       y2="0"
       x2="1"
       y1="0"
       x1="0"><stop
         id="stop776"
         offset="0"
         style="stop-opacity:1;stop-color:#ffffff" /><stop
         id="stop778"
         offset="0.5033869"
         style="stop-opacity:1;stop-color:#ffffff" /><stop
         id="stop780"
         offset="1"
         style="stop-opacity:1;stop-color:#292929" /></linearGradient><clipPath
       id="clipPath804"
       clipPathUnits="userSpaceOnUse"><path
         id="path802"
         d="M 257.728,612.971 H 480.523 V 576.334 H 257.728 Z" /></clipPath><linearGradient
       id="linearGradient816"
       spreadMethod="pad"
       gradientTransform="matrix(-3.3872595,158.07211,158.07211,3.3872595,369.96686,546.91455)"
       gradientUnits="userSpaceOnUse"
       y2="0"
       x2="1"
       y1="0"
       x1="0"><stop
         id="stop810"
         offset="0"
         style="stop-opacity:1;stop-color:#ffffff" /><stop
         id="stop812"
         offset="0.5033869"
         style="stop-opacity:1;stop-color:#ffffff" /><stop
         id="stop814"
         offset="1"
         style="stop-opacity:1;stop-color:#292929" /></linearGradient><linearGradient
       id="linearGradient858"
       spreadMethod="pad"
       gradientTransform="matrix(1.9472717,-49.330883,-49.330883,-1.9472717,773.87573,387.40741)"
       gradientUnits="userSpaceOnUse"
       y2="0"
       x2="1"
       y1="0"
       x1="0"><stop
         id="stop844"
         offset="0"
         style="stop-opacity:1;stop-color:#facb3b" /><stop
         id="stop846"
         offset="0.00372688"
         style="stop-opacity:1;stop-color:#facb3b" /><stop
         id="stop848"
         offset="0.219786"
         style="stop-opacity:1;stop-color:#ea8f3f" /><stop
         id="stop850"
         offset="0.469886"
         style="stop-opacity:1;stop-color:#de513e" /><stop
         id="stop852"
         offset="0.614776"
         style="stop-opacity:1;stop-color:#c94563" /><stop
         id="stop854"
         offset="0.834343"
         style="stop-opacity:1;stop-color:#7c4e94" /><stop
         id="stop856"
         offset="1"
         style="stop-opacity:1;stop-color:#554893" /></linearGradient><linearGradient
       id="linearGradient888"
       spreadMethod="pad"
       gradientTransform="matrix(1.9443961,-49.258034,-49.258034,-1.9443961,792.40686,388.16891)"
       gradientUnits="userSpaceOnUse"
       y2="0"
       x2="1"
       y1="0"
       x1="0"><stop
         id="stop874"
         offset="0"
         style="stop-opacity:1;stop-color:#facb3b" /><stop
         id="stop876"
         offset="0.00372688"
         style="stop-opacity:1;stop-color:#facb3b" /><stop
         id="stop878"
         offset="0.219786"
         style="stop-opacity:1;stop-color:#ea8f3f" /><stop
         id="stop880"
         offset="0.469886"
         style="stop-opacity:1;stop-color:#de513e" /><stop
         id="stop882"
         offset="0.614776"
         style="stop-opacity:1;stop-color:#c94563" /><stop
         id="stop884"
         offset="0.834343"
         style="stop-opacity:1;stop-color:#7c4e94" /><stop
         id="stop886"
         offset="1"
         style="stop-opacity:1;stop-color:#554893" /></linearGradient></defs><g
     transform="matrix(1.3333333,0,0,-1.3333333,0,1333.3333)"
     id="g10"><g
       id="g12"><g
         id="g14"><g
           id="g20"><g
             id="g22"><path
               id="path40"
               style="fill:url(#linearGradient38);stroke:none"
               d="m 199.399,380.243 v -27.082 c 0,-2.177 0.205,-4.088 0.612,-5.732 v 0 c 0.408,-1.642 1.084,-3.009 2.028,-4.098 v 0 c 0.944,-1.089 2.204,-1.9 3.78,-2.435 v 0 c 1.573,-0.534 3.51,-0.801 5.806,-0.801 v 0 h 27.289 v 10.274 H 212.85 c -1.298,0 -2.177,0.267 -2.642,0.801 v 0 c -0.463,0.536 -0.693,1.536 -0.693,3 v 0 26.073 z" /></g></g></g></g><g
       id="g42"><g
         id="g44"><g
           id="g50"><g
             id="g52"><path
               id="path70"
               style="fill:url(#linearGradient68);stroke:none"
               d="m 242.86,340.095 h 10.117 v 40.148 H 242.86 Z" /></g></g></g></g><g
       id="g72"><g
         id="g74"><g
           id="g80"><g
             id="g82"><path
               id="path100"
               style="fill:url(#linearGradient98);stroke:none"
               d="m 277.707,380.243 c -3.039,0 -5.695,-0.467 -7.974,-1.396 v 0 c -2.279,-0.93 -4.254,-2.227 -5.92,-3.89 v 0 c -1.89,-1.861 -3.373,-4.061 -4.447,-6.592 v 0 c -1.074,-2.534 -1.611,-5.267 -1.611,-8.196 v 0 c 0,-2.652 0.426,-5.128 1.278,-7.423 v 0 c 0.852,-2.299 2.037,-4.337 3.558,-6.118 v 0 c 1.74,-2.02 3.852,-3.614 6.334,-4.78 v 0 c 2.483,-1.169 5.409,-1.753 8.782,-1.753 v 0 h 17.952 c 1.592,0 2.389,0.85 2.389,2.553 v 0 19.42 h -10.003 v -10.749 c 0,-0.556 -0.241,-0.832 -0.723,-0.832 v 0 h -9.615 c -1.78,0 -3.28,0.308 -4.502,0.922 v 0 c -1.222,0.613 -2.242,1.396 -3.057,2.345 v 0 c -0.741,0.832 -1.315,1.793 -1.722,2.882 v 0 c -0.409,1.089 -0.612,2.246 -0.612,3.475 v 0 c 0,1.343 0.249,2.612 0.751,3.799 v 0 c 0.5,1.188 1.176,2.218 2.027,3.087 v 0 c 0.816,0.794 1.779,1.427 2.891,1.901 v 0 c 1.112,0.475 2.52,0.714 4.224,0.714 v 0 h 20.287 v 10.631 z" /></g></g></g></g><g
       id="g102"><g
         id="g104"><g
           id="g110"><g
             id="g112"><path
               id="path130"
               style="fill:url(#linearGradient128);stroke:none"
               d="m 336.006,380.243 v -14.551 h -22.397 v 14.551 h -10.116 v -40.148 h 10.116 v 15.501 h 22.397 v -15.501 h 10.114 v 40.148 z" /></g></g></g></g><g
       id="g132"><g
         id="g134"><g
           id="g140"><g
             id="g142"><path
               id="path160"
               style="fill:url(#linearGradient158);stroke:none"
               d="m 350.123,380.243 v -10.631 h 16.507 v -29.517 h 10.115 v 29.517 h 16.452 v 10.631 z" /></g></g></g></g><g
       id="g162"><g
         id="g164"><g
           id="g170"><g
             id="g172"><path
               id="path190"
               style="fill:url(#linearGradient188);stroke:none"
               d="m 401.867,380.628 c -1.076,-0.335 -2.002,-0.881 -2.781,-1.632 v 0 c -0.777,-0.754 -1.379,-1.724 -1.805,-2.91 v 0 c -0.427,-1.187 -0.639,-2.634 -0.639,-4.336 v 0 -31.655 h 9.893 v 27.199 c 0,0.358 0.091,0.634 0.277,0.832 v 0 c 0.185,0.199 0.408,0.298 0.667,0.298 v 0 c 0.297,0 0.593,-0.177 0.889,-0.534 v 0 l 20.62,-25.478 c 0.889,-1.11 1.936,-1.911 3.141,-2.406 v 0 c 1.202,-0.494 2.601,-0.742 4.195,-0.742 v 0 c 0.926,0 1.815,0.167 2.668,0.506 v 0 c 0.851,0.335 1.602,0.849 2.25,1.541 v 0 c 0.65,0.695 1.167,1.585 1.556,2.674 v 0 c 0.389,1.089 0.583,2.386 0.583,3.89 v 0 32.368 h -9.836 V 354.29 c 0,-0.713 -0.261,-1.07 -0.777,-1.07 v 0 c -0.187,0 -0.354,0.031 -0.5,0.09 v 0 c -0.15,0.059 -0.299,0.187 -0.447,0.385 v 0 l -18.339,23.458 c -1.187,1.465 -2.389,2.495 -3.613,3.09 v 0 c -1.223,0.593 -2.723,0.891 -4.501,0.891 v 0 c -1.26,0 -2.426,-0.17 -3.501,-0.506" /></g></g></g></g><g
       id="g192"><g
         id="g194"><g
           id="g200"><g
             id="g202"><path
               id="path220"
               style="fill:url(#linearGradient218);stroke:none"
               d="m 448.996,340.095 h 10.117 v 40.148 h -10.117 z" /></g></g></g></g><g
       id="g222"><g
         id="g224"><g
           id="g230"><g
             id="g232"><path
               id="path250"
               style="fill:url(#linearGradient248);stroke:none"
               d="m 469.839,380.628 c -1.077,-0.335 -2.003,-0.881 -2.781,-1.632 v 0 c -0.778,-0.754 -1.379,-1.724 -1.806,-2.91 v 0 c -0.426,-1.187 -0.638,-2.634 -0.638,-4.336 v 0 -31.655 h 9.893 v 27.199 c 0,0.358 0.091,0.634 0.276,0.832 v 0 c 0.186,0.199 0.41,0.298 0.668,0.298 v 0 c 0.296,0 0.592,-0.177 0.888,-0.534 v 0 l 20.62,-25.478 c 0.89,-1.11 1.936,-1.911 3.141,-2.406 v 0 c 1.203,-0.494 2.602,-0.742 4.195,-0.742 v 0 c 0.926,0 1.816,0.167 2.668,0.506 v 0 c 0.851,0.335 1.603,0.849 2.25,1.541 v 0 c 0.65,0.695 1.168,1.585 1.557,2.674 v 0 c 0.389,1.089 0.582,2.386 0.582,3.89 v 0 32.368 h -9.835 V 354.29 c 0,-0.713 -0.261,-1.07 -0.779,-1.07 v 0 c -0.185,0 -0.352,0.031 -0.499,0.09 v 0 c -0.149,0.059 -0.298,0.187 -0.446,0.385 v 0 l -18.339,23.458 c -1.187,1.465 -2.389,2.495 -3.613,3.09 v 0 c -1.224,0.593 -2.724,0.891 -4.501,0.891 v 0 c -1.26,0 -2.427,-0.17 -3.501,-0.506" /></g></g></g></g><g
       id="g252"><g
         id="g254"><g
           id="g260"><g
             id="g262"><path
               id="path280"
               style="fill:url(#linearGradient278);stroke:none"
               d="m 536.029,380.243 c -3.04,0 -5.696,-0.467 -7.976,-1.396 v 0 c -2.277,-0.93 -4.251,-2.227 -5.918,-3.89 v 0 c -1.89,-1.861 -3.373,-4.061 -4.448,-6.592 v 0 c -1.074,-2.534 -1.611,-5.267 -1.611,-8.196 v 0 c 0,-2.652 0.427,-5.128 1.277,-7.423 v 0 c 0.854,-2.299 2.039,-4.337 3.559,-6.118 v 0 c 1.74,-2.02 3.853,-3.614 6.335,-4.78 v 0 c 2.482,-1.169 5.409,-1.753 8.782,-1.753 v 0 h 17.953 c 1.591,0 2.388,0.85 2.388,2.553 v 0 19.42 h -10.003 v -10.749 c 0,-0.556 -0.241,-0.832 -0.723,-0.832 v 0 h -9.615 c -1.779,0 -3.28,0.308 -4.503,0.922 v 0 c -1.223,0.613 -2.241,1.396 -3.056,2.345 v 0 c -0.741,0.832 -1.316,1.793 -1.722,2.882 v 0 c -0.409,1.089 -0.613,2.246 -0.613,3.475 v 0 c 0,1.343 0.251,2.612 0.752,3.799 v 0 c 0.499,1.188 1.175,2.218 2.027,3.087 v 0 c 0.815,0.794 1.779,1.427 2.891,1.901 v 0 c 1.112,0.475 2.521,0.714 4.224,0.714 v 0 h 20.286 v 10.631 z" /></g></g></g></g><g
       id="g282"><g
         id="g284"><g
           id="g290"><g
             id="g292"><path
               id="path300"
               style="fill:url(#linearGradient298);stroke:none"
               d="m 568.488,380.243 c -4.523,0 -6.782,-2.456 -6.782,-7.364 v 0 -32.784 h 10.06 v 13.422 h 29.287 v 9.978 h -29.287 v 4.334 c 0,1.187 0.519,1.783 1.556,1.783 v 0 h 27.9 v 10.631 z" /></g></g></g></g><g
       id="g302"><g
         id="g304"><g
           id="g310"><g
             id="g312"><path
               id="path320"
               style="fill:url(#linearGradient318);stroke:none"
               d="m 605.446,380.243 v -27.082 c 0,-2.177 0.204,-4.088 0.609,-5.732 v 0 c 0.41,-1.642 1.087,-3.009 2.03,-4.098 v 0 c 0.944,-1.089 2.204,-1.9 3.78,-2.435 v 0 c 1.573,-0.534 3.51,-0.801 5.806,-0.801 v 0 h 27.289 v 10.274 h -26.064 c -1.297,0 -2.177,0.267 -2.641,0.801 v 0 c -0.465,0.536 -0.695,1.536 -0.695,3 v 0 26.073 z" /></g></g></g></g><g
       id="g322"><g
         id="g324"><g
           id="g330"><g
             id="g332"><path
               id="path340"
               style="fill:url(#linearGradient338);stroke:none"
               d="m 666.413,380.243 c -3.039,0 -5.696,-0.467 -7.975,-1.396 v 0 c -2.279,-0.93 -4.252,-2.227 -5.918,-3.89 v 0 c -1.891,-1.861 -3.373,-4.061 -4.448,-6.592 v 0 c -1.074,-2.534 -1.611,-5.267 -1.611,-8.196 v 0 c 0,-2.652 0.427,-5.128 1.277,-7.423 v 0 c 0.854,-2.299 2.039,-4.337 3.559,-6.118 v 0 c 1.739,-2.02 3.853,-3.614 6.335,-4.78 v 0 c 2.481,-1.169 5.408,-1.753 8.781,-1.753 v 0 h 7.89 c 3.374,0 6.3,0.584 8.783,1.753 v 0 c 2.482,1.166 4.595,2.76 6.336,4.78 v 0 c 1.52,1.781 2.704,3.819 3.556,6.118 v 0 c 0.852,2.295 1.278,4.771 1.278,7.423 v 0 c 0,2.929 -0.536,5.662 -1.611,8.196 v 0 c -1.073,2.531 -2.556,4.731 -4.445,6.592 v 0 c -1.669,1.663 -3.64,2.96 -5.919,3.89 v 0 c -2.279,0.929 -4.938,1.396 -7.978,1.396 v 0 z m -4.502,-28.745 c -1.223,0.553 -2.241,1.307 -3.058,2.256 v 0 c -0.74,0.832 -1.314,1.793 -1.722,2.882 v 0 c -0.408,1.089 -0.612,2.246 -0.612,3.475 v 0 c 0,1.343 0.251,2.612 0.753,3.799 v 0 c 0.498,1.188 1.175,2.218 2.026,3.087 v 0 c 0.815,0.794 1.779,1.427 2.891,1.901 v 0 c 1.112,0.475 2.52,0.714 4.224,0.714 v 0 h 7.89 c 1.705,0 3.115,-0.239 4.225,-0.714 v 0 c 1.111,-0.474 2.075,-1.107 2.891,-1.901 v 0 c 0.85,-0.869 1.527,-1.899 2.029,-3.087 v 0 c 0.499,-1.187 0.749,-2.456 0.749,-3.799 v 0 c 0,-1.229 -0.203,-2.386 -0.61,-3.475 v 0 c -0.409,-1.089 -0.984,-2.05 -1.724,-2.882 v 0 c -0.815,-0.949 -1.835,-1.703 -3.056,-2.256 v 0 c -1.223,-0.555 -2.724,-0.831 -4.504,-0.831 v 0 h -7.89 c -1.779,0 -3.28,0.276 -4.502,0.831" /></g></g></g></g><g
       id="g342"><g
         id="g344"><g
           id="g350"><g
             id="g352"><path
               id="path360"
               style="fill:url(#linearGradient358);stroke:none"
               d="m 722.602,379.083 c -1.631,-1.366 -2.836,-3.493 -3.615,-6.384 v 0 l -5.724,-21.558 c -0.111,-0.474 -0.277,-0.802 -0.499,-0.979 v 0 c -0.224,-0.177 -0.5,-0.267 -0.834,-0.267 v 0 c -0.778,0 -1.222,0.453 -1.335,1.365 v 0 l -3.946,27.438 c -0.037,0.277 -0.063,0.553 -0.083,0.831 v 0 c -0.018,0.276 -0.027,0.516 -0.027,0.714 v 0 h -10.616 c 0,-0.514 0.055,-1.15 0.168,-1.901 v 0 l 4.668,-30.11 c 0.184,-1.268 0.537,-2.457 1.056,-3.564 v 0 c 0.518,-1.107 1.223,-2.06 2.112,-2.851 v 0 c 0.888,-0.792 1.974,-1.415 3.251,-1.871 v 0 c 1.277,-0.453 2.769,-0.682 4.474,-0.682 v 0 c 2.891,0 5.225,0.723 7.002,2.167 v 0 c 1.78,1.444 3.075,3.712 3.89,6.801 v 0 l 5.838,22.153 c 0.183,0.791 0.592,1.187 1.222,1.187 v 0 c 0.629,0 1.037,-0.396 1.222,-1.187 v 0 l 5.391,-22.153 c 1.481,-5.98 5.019,-8.968 10.616,-8.968 v 0 c 3.371,0 5.938,0.822 7.696,2.463 v 0 c 1.76,1.644 2.862,3.791 3.307,6.446 v 0 l 5.002,30.169 c 0.075,0.435 0.119,0.781 0.14,1.039 v 0 c 0.017,0.258 0.028,0.543 0.028,0.862 v 0 h -10.505 v -0.682 c 0,-0.26 -0.038,-0.547 -0.112,-0.863 v 0 l -4.278,-27.438 c -0.148,-0.912 -0.593,-1.365 -1.336,-1.365 v 0 c -0.33,0 -0.609,0.09 -0.832,0.267 v 0 c -0.221,0.177 -0.389,0.505 -0.5,0.979 v 0 l -5.614,21.856 c -0.703,2.732 -1.833,4.771 -3.389,6.117 v 0 c -1.559,1.346 -3.835,2.02 -6.836,2.02 v 0 c -3.039,0 -5.373,-0.682 -7.002,-2.051" /></g></g></g></g><g
       id="g362"><g
         id="g364"><g
           id="g370"><g
             id="g372"><path
               id="path380"
               style="fill:url(#linearGradient378);stroke:none"
               d="m 320.256,477.485 c -0.707,-0.539 -2.02,-1.295 -3.737,-2.158 v 0 c -1.717,-0.971 -3.838,-1.942 -6.363,-2.914 v 0 c -0.808,-0.431 -1.717,-0.754 -2.524,-0.971 v 0 c -0.203,-0.108 -0.505,-0.216 -0.707,-0.324 v 0 c -29.68,-11.181 -97.148,-24.149 -108.435,45.984 v 0 l -0.513,2.456 C 208.518,434.057 298.4,383.949 371.056,428.921 v 0 l 84.431,82.884 -39.691,24.498 z" /></g></g></g></g><g
       id="g382"><g
         id="g384"><g
           id="g390"><g
             id="g392"><path
               id="path400"
               style="fill:url(#linearGradient398);stroke:none"
               d="m 200.982,569.685 c -1.809,-7.02 -3.05,-14.332 -3.669,-21.934 v 0 c -0.322,-3.709 -0.47,-7.497 -0.47,-11.339 v 0 c 0,-1.827 0.098,-3.682 0.198,-5.404 v 0 -0.159 c 0.173,-3.814 0.47,-7.576 0.941,-11.285 v 0 l 0.496,-2.41 c 0.322,-2.094 0.719,-4.107 1.165,-6.04 v 0 c 14.082,-63.368 78.488,-50.838 107.27,-40.003 v 0 c -1.859,-0.635 -3.744,-1.166 -5.627,-1.588 v 0 c -4.165,-0.981 -8.429,-1.431 -12.742,-1.431 v 0 c -4.166,0 -8.405,0.476 -12.57,1.457 v 0 c -13.437,2.993 -26.426,10.755 -35.971,22.411 v 0 h -0.025 c -9.322,11.365 -15.37,26.438 -15.37,44.452 v 0 c -3.406,45.071 6.914,104.734 67.45,122.198 v 0 c -42.418,-8.482 -79.119,-41.984 -91.076,-88.925" /></g></g></g></g><g
       id="g402"><g
         id="g404"><g
           id="g410"><g
             id="g412"><path
               id="path420"
               style="fill:url(#linearGradient418);stroke:none"
               d="m 292.058,658.61 c -60.536,-17.464 -70.856,-77.127 -67.45,-122.198 v 0 c 0,27.842 14.453,48.664 33.12,59.579 v 0 c 31.113,24.054 147.655,26.756 222.795,-19.656 v 0 l -109.476,67.579 c -18.667,11.523 -38.574,16.821 -57.861,16.821 v 0 c -7.142,0 -14.208,-0.742 -21.128,-2.125" /></g></g></g></g><g
       id="g422"><g
         id="g424"><g
           id="g430"><g
             id="g432"><path
               id="path440"
               style="fill:url(#linearGradient438);stroke:none"
               d="m 539.625,532.73 -34.038,-20.928 -10.412,-6.358 -7.883,-4.822 -6.769,-4.132 c 0,0 0.026,0 0.026,-0.026 v 0 c 4.189,-2.57 8.527,-5.007 12.965,-7.285 v 0 c 74.001,-38.174 177.75,-35.181 208.59,-13.193 v 0 c -1.413,-0.768 -2.827,-1.511 -4.338,-2.173 v 0 c -0.099,0 -0.099,-0.106 -0.198,-0.106 v 0 c -7.885,-3.655 -16.461,-5.615 -25.039,-5.615 v 0 c -11.007,0 -21.618,3.125 -31.707,9.404 v 0 l -7.587,4.636 -71.794,44.24 h -0.099 l -3.644,2.305 -0.298,0.185 -12.122,7.444 z" /></g></g></g></g><g
       id="g442"><g
         id="g444"><g
           id="g450"><g
             id="g452"><path
               id="path460"
               style="fill:url(#linearGradient458);stroke:none"
               d="m 257.728,595.991 c 9.619,5.722 20.305,8.741 30.816,8.741 v 0 c 11.007,0 21.717,-3.125 31.707,-9.297 v 0 l 12.842,-7.921 70.282,-43.34 12.42,-7.656 0.172,0.106 39.518,24.398 21.246,12.982 3.792,2.331 c -4.214,2.595 -8.552,5.033 -12.99,7.311 v 0 c -40.152,20.75 -89.064,29.326 -130.348,29.326 v 0 c -35.773,-10e-4 -65.819,-6.442 -79.457,-16.981" /></g></g></g></g><g
       id="g462"><g
         id="g464"><g
           id="g470"><g
             id="g472"><path
               id="path490"
               style="fill:url(#linearGradient488);stroke:none"
               d="m 480.533,576.341 -25.046,-15.324 -39.691,-24.498 0.101,-0.108 -0.101,-0.108 39.691,-24.498 -84.431,-82.884 109.477,67.559 25.047,15.325 34.035,20.936 5.656,3.562 -0.101,0.108 0.101,0.108 -10.099,6.258 -29.592,18.24 84.432,82.884 z" /></g></g></g></g><g
       id="g492"><g
         id="g494"><g
           id="g500"><g
             id="g502"><path
               id="path510"
               style="fill:url(#linearGradient508);stroke:none"
               d="m 607.282,652.642 c -5.857,-2.374 -11.615,-5.288 -17.272,-8.741 v 0 l -84.429,-82.884 29.591,-18.239 10.099,-6.259 7.575,4.748 87.966,54.177 c 0.201,0.108 0.404,0.216 0.606,0.323 v 0 c 0.708,0.433 1.817,1.081 3.232,1.836 v 0 c 0.707,0.431 1.311,0.647 2.02,0.97 v 0 c 1.01,0.54 2.12,0.972 3.131,1.404 v 0 c 1.515,0.647 3.131,1.294 4.646,1.725 v 0 c 0.605,0.217 1.21,0.433 1.817,0.541 v 0 c 0.303,0.108 0.606,0.215 0.91,0.323 v 0 c 31.61,10.901 97.155,21.37 106.044,-51.046 v 0 c -1.416,13.813 -4.948,26.764 -10.201,38.42 v 0 c -0.201,0.647 -0.505,1.295 -0.91,2.05 v 0 c -19.593,41.982 -60.597,68.746 -104.125,68.746 v 0 c -13.531,0 -27.268,-2.59 -40.7,-8.094" /></g></g></g></g><g
       id="g512"><g
         id="g514"><g
           id="g520"><g
             id="g522"><path
               id="path530"
               style="fill:url(#linearGradient528);stroke:none"
               d="m 717.265,487.523 c -4.545,-4.641 -9.696,-8.527 -15.15,-11.548 v 0 C 669.394,452.663 554.764,450.721 480.534,496.48 v 0 l 19.087,-11.763 90.389,-55.796 c 28.736,-17.734 60.123,-20.652 88.243,-12.444 v 0 c 47.851,15.662 58.2,74.042 58.2,119.934 v 0 c 0,-24.067 -10.401,-39.823 -19.188,-48.888" /></g></g></g></g><g
       id="g532"><g
         id="g534"><g
           id="g540"><g
             id="g542"><path
               id="path550"
               style="fill:url(#linearGradient548);stroke:none"
               d="m 657.174,602.566 c 1.716,0.54 3.533,0.864 5.252,1.187 v 0 c 0.806,0.108 1.614,0.324 2.424,0.432 v 0 c 2.524,0.323 5.05,0.54 7.675,0.54 v 0 c 6.16,0 12.523,-1.079 18.581,-3.238 v 0 c 24.139,-7.986 45.347,-31.405 45.347,-65.076 v 0 c 0,-45.892 -10.349,-104.272 -58.2,-119.934 v 0 c 47.685,13.919 85.974,59.853 85.974,119.934 v 0 c 0,1.835 -0.101,3.669 -0.202,5.395 v 0 c -0.101,2.159 -0.303,4.318 -0.404,6.369 v 0 c -0.201,0.971 -0.303,2.158 -0.403,3.345 v 0 c -0.202,2.05 -0.506,4.101 -0.911,6.043 v 0 c -7.394,41.487 -35.113,52.744 -62.271,52.745 v 0 c -15.867,0 -31.54,-3.841 -42.862,-7.742" /></g></g></g></g><g
       id="g552"><g
         clip-path="url(#clipPath558)"
         id="g554"><g
           id="g560"><g
             id="g562" /><g
             id="g592"><g
               id="g590"
               clip-path="url(#clipPath566)"><g
                 id="g588"><g
                   id="g586"><g
                     id="g584"><g
                       id="g582"><path
                         id="path580"
                         style="fill:url(#linearGradient578);stroke:none"
                         d="m 518.609,561.448 26.662,-24.929 -10.099,6.259 -29.591,18.239 84.43,82.883 c 5.656,3.454 11.414,6.368 17.271,8.742 z" /></g></g></g></g></g></g></g><g
           id="g594"><g
             id="g596" /><g
             id="g626"><g
               id="g624"
               clip-path="url(#clipPath600)"><g
                 id="g622"><g
                   id="g620"><g
                     id="g618"><g
                       id="g616"><path
                         id="path614"
                         style="fill:url(#linearGradient612);stroke:none"
                         d="m 442.458,511.373 -26.661,24.93 10.099,-6.26 29.591,-18.238 -84.43,-82.884 c -5.656,-3.453 -11.413,-6.367 -17.27,-8.741 z" /></g></g></g></g></g></g></g><g
           id="g628"><g
             id="g630" /><g
             id="g660"><g
               id="g658"
               clip-path="url(#clipPath634)"><g
                 id="g656"><g
                   id="g654"><g
                     id="g652"><g
                       id="g650"><path
                         id="path648"
                         style="fill:url(#linearGradient646);stroke:none"
                         d="m 762.308,557.563 c -6.766,33.78 -44.235,50.184 -71.101,44.033 l -0.101,-0.109 c -6.058,2.159 -12.421,3.238 -18.581,3.238 -2.626,0 -5.151,-0.216 -7.675,-0.539 -0.809,-0.108 -1.619,-0.325 -2.424,-0.433 -1.719,-0.323 -3.536,-0.647 -5.252,-1.187 30.701,10.577 93.42,20.721 105.134,-45.003" /></g></g></g></g></g></g></g><g
           id="g662"><g
             id="g664" /><g
             id="g694"><g
               id="g692"
               clip-path="url(#clipPath668)"><g
                 id="g690"><g
                   id="g688"><g
                     id="g686"><g
                       id="g684"><path
                         id="path682"
                         style="fill:url(#linearGradient680);stroke:none"
                         d="m 702.115,475.975 c -32.721,-23.312 -147.351,-25.254 -221.58,20.504 37.872,-23.31 119.274,-26.547 152.701,-14.353 l 7.576,-4.64 c 10.099,-6.259 20.704,-9.389 31.713,-9.389 8.583,0 17.168,1.942 25.046,5.611 0.102,0 0.102,0.108 0.202,0.108 1.514,0.648 2.928,1.404 4.342,2.159" /></g></g></g></g></g></g></g><g
           id="g696"><g
             id="g698" /><g
             id="g728"><g
               id="g726"
               clip-path="url(#clipPath702)"><g
                 id="g724"><g
                   id="g722"><g
                     id="g720"><g
                       id="g718"><path
                         id="path716"
                         style="fill:url(#linearGradient714);stroke:none"
                         d="m 557.697,528.677 -64.183,-39.498 c -4.438,2.278 -8.776,4.715 -12.966,7.285 l 6.744,4.159 57.985,35.683 12.122,-7.444 z" /></g></g></g></g></g></g></g><g
           id="g730"><g
             id="g732" /><g
             id="g762"><g
               id="g760"
               clip-path="url(#clipPath736)"><g
                 id="g758"><g
                   id="g756"><g
                     id="g754"><g
                       id="g752"><path
                         id="path750"
                         style="fill:url(#linearGradient748);stroke:none"
                         d="m 480.523,576.334 -3.793,-2.331 -60.762,-37.379 -0.174,-0.106 -12.419,7.656 64.158,39.472 c 4.438,-2.278 8.776,-4.715 12.99,-7.312" /></g></g></g></g></g></g></g><g
           id="g764"><g
             id="g766" /><g
             id="g796"><g
               id="g794"
               clip-path="url(#clipPath770)"><g
                 id="g792"><g
                   id="g790"><g
                     id="g788"><g
                       id="g786"><path
                         id="path784"
                         style="fill:url(#linearGradient782);stroke:none"
                         d="m 306.913,471.111 c -28.782,-10.835 -93.188,-23.365 -107.27,40.002 15.668,-24.16 44.599,-44.426 76.331,-41.591 v 0.027 c 4.165,-0.981 8.404,-1.457 12.569,-1.457 4.314,0 8.578,0.45 12.743,1.43 1.884,0.423 3.768,0.954 5.627,1.589" /></g></g></g></g></g></g></g><g
           id="g798"><g
             id="g800" /><g
             id="g830"><g
               id="g828"
               clip-path="url(#clipPath804)"><g
                 id="g826"><g
                   id="g824"><g
                     id="g822"><g
                       id="g820"><path
                         id="path818"
                         style="fill:url(#linearGradient816);stroke:none"
                         d="m 480.523,576.334 c -38.078,14.889 -122.69,24.875 -147.431,11.18 l -12.841,7.921 c -9.991,6.172 -20.701,9.298 -31.708,9.298 -10.511,0 -21.196,-3.02 -30.815,-8.742 29.377,22.703 134.862,26.385 209.805,-12.345 4.438,-2.278 8.776,-4.715 12.99,-7.312" /></g></g></g></g></g></g></g></g></g><g
       id="g832"><g
         id="g834"><g
           id="g840"><g
             id="g842"><path
               id="path860"
               style="fill:url(#linearGradient858);stroke:none"
               d="m 767.241,379.952 v -3.673 h 4.801 v -15.422 h 4.348 v 15.422 h 4.853 v 3.673 z" /></g></g></g></g><g
       id="g862"><g
         id="g864"><g
           id="g870"><g
             id="g872"><path
               id="path890"
               style="fill:url(#linearGradient888);stroke:none"
               d="m 797.9,379.817 -4.726,-13.207 -4.827,13.207 h -5.283 v -18.96 h 4.322 v 11.883 l 3.867,-11.883 h 3.741 l 3.842,11.857 v -11.857 h 4.322 v 18.96 z" /></g></g></g></g></g></svg>