<?xml version="1.0" encoding="utf-8"?>
<!-- Generator: Adobe Illustrator 24.2.3, SVG Export Plug-In . SVG Version: 6.00 Build 0)  -->
<svg version="1.1"
	 id="svg2" xmlns:cc="http://creativecommons.org/ns#" xmlns:dc="http://purl.org/dc/elements/1.1/" xmlns:rdf="http://www.w3.org/1999/02/22-rdf-syntax-ns#" xmlns:svg="http://www.w3.org/2000/svg"
	 xmlns="http://www.w3.org/2000/svg" xmlns:xlink="http://www.w3.org/1999/xlink" x="0px" y="0px" viewBox="0 0 1333.3 1333.3"
	 style="enable-background:new 0 0 1333.3 1333.3;" xml:space="preserve">
<style type="text/css">
	.st0{fill:url(#path40_1_);}
	.st1{fill:url(#path70_1_);}
	.st2{fill:url(#path100_1_);}
	.st3{fill:url(#path130_1_);}
	.st4{fill:url(#path160_1_);}
	.st5{fill:url(#path190_1_);}
	.st6{fill:url(#path220_1_);}
	.st7{fill:url(#path250_1_);}
	.st8{fill:url(#path280_1_);}
	.st9{fill:url(#path300_1_);}
	.st10{fill:url(#path320_1_);}
	.st11{fill:url(#path340_1_);}
	.st12{fill:url(#path360_1_);}
	.st13{fill:url(#path380_1_);}
	.st14{fill:url(#path400_1_);}
	.st15{fill:url(#path420_1_);}
	.st16{fill:url(#path440_1_);}
	.st17{fill:url(#path460_1_);}
	.st18{fill:url(#path490_1_);}
	.st19{fill:url(#path510_1_);}
	.st20{fill:url(#path530_1_);}
	.st21{fill:url(#path550_1_);}
	.st22{fill:url(#path860_1_);}
	.st23{fill:url(#path890_1_);}
</style>
<g id="g12">
	<g id="g14">
		<g id="g20">
			<g id="g22">
				
					<linearGradient id="path40_1_" gradientUnits="userSpaceOnUse" x1="367.3207" y1="1084.2352" x2="368.3207" y2="1084.2352" gradientTransform="matrix(-3.1098 140.9778 140.9778 3.1098 -151417.3125 -54359.6992)">
					<stop  offset="0" style="stop-color:#FACB3B"/>
					<stop  offset="3.726880e-03" style="stop-color:#FACB3B"/>
					<stop  offset="0.2198" style="stop-color:#EA8F3F"/>
					<stop  offset="0.4699" style="stop-color:#DE513E"/>
					<stop  offset="0.6148" style="stop-color:#C94563"/>
					<stop  offset="0.8343" style="stop-color:#7C4E94"/>
					<stop  offset="1" style="stop-color:#554893"/>
				</linearGradient>
				<path id="path40" class="st0" d="M265.9,826.3v36.1c0,2.9,0.3,5.5,0.8,7.6l0,0c0.5,2.2,1.4,4,2.7,5.5l0,0c1.3,1.5,2.9,2.5,5,3.2
					l0,0c2.1,0.7,4.7,1.1,7.7,1.1l0,0h36.4v-13.7h-34.8c-1.7,0-2.9-0.4-3.5-1.1l0,0c-0.6-0.7-0.9-2-0.9-4l0,0v-34.8H265.9z"/>
			</g>
		</g>
	</g>
</g>
<g id="g42">
	<g id="g44">
		<g id="g50">
			<g id="g52">
				
					<linearGradient id="path70_1_" gradientUnits="userSpaceOnUse" x1="367.32" y1="1084.2341" x2="368.32" y2="1084.2341" gradientTransform="matrix(-3.1085 140.9165 140.9165 3.1085 -151312.9531 -54334.7031)">
					<stop  offset="0" style="stop-color:#FACB3B"/>
					<stop  offset="3.726880e-03" style="stop-color:#FACB3B"/>
					<stop  offset="0.2198" style="stop-color:#EA8F3F"/>
					<stop  offset="0.4699" style="stop-color:#DE513E"/>
					<stop  offset="0.6148" style="stop-color:#C94563"/>
					<stop  offset="0.8343" style="stop-color:#7C4E94"/>
					<stop  offset="1" style="stop-color:#554893"/>
				</linearGradient>
				<path id="path70" class="st1" d="M323.8,879.9h13.5v-53.5h-13.5V879.9z"/>
			</g>
		</g>
	</g>
</g>
<g id="g72">
	<g id="g74">
		<g id="g80">
			<g id="g82">
				
					<linearGradient id="path100_1_" gradientUnits="userSpaceOnUse" x1="367.3193" y1="1084.233" x2="368.3193" y2="1084.233" gradientTransform="matrix(-3.1072 140.8601 140.8601 3.1072 -151211.8281 -54311.5234)">
					<stop  offset="0" style="stop-color:#FACB3B"/>
					<stop  offset="3.726880e-03" style="stop-color:#FACB3B"/>
					<stop  offset="0.2198" style="stop-color:#EA8F3F"/>
					<stop  offset="0.4699" style="stop-color:#DE513E"/>
					<stop  offset="0.6148" style="stop-color:#C94563"/>
					<stop  offset="0.8343" style="stop-color:#7C4E94"/>
					<stop  offset="1" style="stop-color:#554893"/>
				</linearGradient>
				<path id="path100" class="st2" d="M370.3,826.3c-4.1,0-7.6,0.6-10.6,1.9l0,0c-3,1.2-5.7,3-7.9,5.2l0,0c-2.5,2.5-4.5,5.4-5.9,8.8
					l0,0c-1.4,3.4-2.1,7-2.1,10.9l0,0c0,3.5,0.6,6.8,1.7,9.9l0,0c1.1,3.1,2.7,5.8,4.7,8.2l0,0c2.3,2.7,5.1,4.8,8.4,6.4l0,0
					c3.3,1.6,7.2,2.3,11.7,2.3l0,0h23.9c2.1,0,3.2-1.1,3.2-3.4l0,0v-25.9h-13.3v14.3c0,0.7-0.3,1.1-1,1.1l0,0h-12.8
					c-2.4,0-4.4-0.4-6-1.2l0,0c-1.6-0.8-3-1.9-4.1-3.1l0,0c-1-1.1-1.8-2.4-2.3-3.8l0,0c-0.5-1.5-0.8-3-0.8-4.6l0,0
					c0-1.8,0.3-3.5,1-5.1l0,0c0.7-1.6,1.6-3,2.7-4.1l0,0c1.1-1.1,2.4-1.9,3.9-2.5l0,0c1.5-0.6,3.4-1,5.6-1l0,0h27v-14.2H370.3z"/>
			</g>
		</g>
	</g>
</g>
<g id="g102">
	<g id="g104">
		<g id="g110">
			<g id="g112">
				
					<linearGradient id="path130_1_" gradientUnits="userSpaceOnUse" x1="367.318" y1="1084.231" x2="368.318" y2="1084.231" gradientTransform="matrix(-3.1048 140.749 140.749 3.1048 -151029.7812 -54266.3945)">
					<stop  offset="0" style="stop-color:#FACB3B"/>
					<stop  offset="3.726880e-03" style="stop-color:#FACB3B"/>
					<stop  offset="0.2198" style="stop-color:#EA8F3F"/>
					<stop  offset="0.4699" style="stop-color:#DE513E"/>
					<stop  offset="0.6148" style="stop-color:#C94563"/>
					<stop  offset="0.8343" style="stop-color:#7C4E94"/>
					<stop  offset="1" style="stop-color:#554893"/>
				</linearGradient>
				<path id="path130" class="st3" d="M448,826.3v19.4h-29.9v-19.4h-13.5v53.5h13.5v-20.7H448v20.7h13.5v-53.5H448z"/>
			</g>
		</g>
	</g>
</g>
<g id="g132">
	<g id="g134">
		<g id="g140">
			<g id="g142">
				
					<linearGradient id="path160_1_" gradientUnits="userSpaceOnUse" x1="367.3189" y1="1084.2325" x2="368.3189" y2="1084.2325" gradientTransform="matrix(-3.1066 140.831 140.831 3.1066 -151056.1875 -54297.1602)">
					<stop  offset="0" style="stop-color:#FACB3B"/>
					<stop  offset="3.726880e-03" style="stop-color:#FACB3B"/>
					<stop  offset="0.2198" style="stop-color:#EA8F3F"/>
					<stop  offset="0.4699" style="stop-color:#DE513E"/>
					<stop  offset="0.6148" style="stop-color:#C94563"/>
					<stop  offset="0.8343" style="stop-color:#7C4E94"/>
					<stop  offset="1" style="stop-color:#554893"/>
				</linearGradient>
				<path id="path160" class="st4" d="M466.8,826.3v14.2h22v39.4h13.5v-39.4h21.9v-14.2H466.8z"/>
			</g>
		</g>
	</g>
</g>
<g id="g162">
	<g id="g164">
		<g id="g170">
			<g id="g172">
				
					<linearGradient id="path190_1_" gradientUnits="userSpaceOnUse" x1="367.32" y1="1084.2341" x2="368.32" y2="1084.2341" gradientTransform="matrix(-3.1085 140.9187 140.9187 3.1085 -151085.9219 -54330.1836)">
					<stop  offset="0" style="stop-color:#FACB3B"/>
					<stop  offset="3.726880e-03" style="stop-color:#FACB3B"/>
					<stop  offset="0.2198" style="stop-color:#EA8F3F"/>
					<stop  offset="0.4699" style="stop-color:#DE513E"/>
					<stop  offset="0.6148" style="stop-color:#C94563"/>
					<stop  offset="0.8343" style="stop-color:#7C4E94"/>
					<stop  offset="1" style="stop-color:#554893"/>
				</linearGradient>
				<path id="path190" class="st5" d="M535.8,825.8c-1.4,0.4-2.7,1.2-3.7,2.2l0,0c-1,1-1.8,2.3-2.4,3.9l0,0
					c-0.6,1.6-0.9,3.5-0.9,5.8l0,0v42.2H542v-36.3c0-0.5,0.1-0.8,0.4-1.1l0,0c0.2-0.3,0.5-0.4,0.9-0.4l0,0c0.4,0,0.8,0.2,1.2,0.7
					l0,0l27.5,34c1.2,1.5,2.6,2.5,4.2,3.2l0,0c1.6,0.7,3.5,1,5.6,1l0,0c1.2,0,2.4-0.2,3.6-0.7l0,0c1.1-0.4,2.1-1.1,3-2.1l0,0
					c0.9-0.9,1.6-2.1,2.1-3.6l0,0c0.5-1.5,0.8-3.2,0.8-5.2l0,0v-43.2h-13.1v34.6c0,1-0.3,1.4-1,1.4l0,0c-0.2,0-0.5,0-0.7-0.1l0,0
					c-0.2-0.1-0.4-0.2-0.6-0.5l0,0l-24.5-31.3c-1.6-2-3.2-3.3-4.8-4.1l0,0c-1.6-0.8-3.6-1.2-6-1.2l0,0
					C538.8,825.2,537.3,825.4,535.8,825.8"/>
			</g>
		</g>
	</g>
</g>
<g id="g192">
	<g id="g194">
		<g id="g200">
			<g id="g202">
				
					<linearGradient id="path220_1_" gradientUnits="userSpaceOnUse" x1="367.32" y1="1084.2341" x2="368.32" y2="1084.2341" gradientTransform="matrix(-3.1085 140.9165 140.9165 3.1085 -151038.25 -54328.2305)">
					<stop  offset="0" style="stop-color:#FACB3B"/>
					<stop  offset="3.726880e-03" style="stop-color:#FACB3B"/>
					<stop  offset="0.2198" style="stop-color:#EA8F3F"/>
					<stop  offset="0.4699" style="stop-color:#DE513E"/>
					<stop  offset="0.6148" style="stop-color:#C94563"/>
					<stop  offset="0.8343" style="stop-color:#7C4E94"/>
					<stop  offset="1" style="stop-color:#554893"/>
				</linearGradient>
				<path id="path220" class="st6" d="M598.7,879.9h13.5v-53.5h-13.5V879.9z"/>
			</g>
		</g>
	</g>
</g>
<g id="g222">
	<g id="g224">
		<g id="g230">
			<g id="g232">
				
					<linearGradient id="path250_1_" gradientUnits="userSpaceOnUse" x1="367.32" y1="1084.2341" x2="368.32" y2="1084.2341" gradientTransform="matrix(-3.1085 140.9187 140.9187 3.1085 -150995.3438 -54328.0469)">
					<stop  offset="0" style="stop-color:#FACB3B"/>
					<stop  offset="3.726880e-03" style="stop-color:#FACB3B"/>
					<stop  offset="0.2198" style="stop-color:#EA8F3F"/>
					<stop  offset="0.4699" style="stop-color:#DE513E"/>
					<stop  offset="0.6148" style="stop-color:#C94563"/>
					<stop  offset="0.8343" style="stop-color:#7C4E94"/>
					<stop  offset="1" style="stop-color:#554893"/>
				</linearGradient>
				<path id="path250" class="st7" d="M626.5,825.8c-1.4,0.4-2.7,1.2-3.7,2.2l0,0c-1,1-1.8,2.3-2.4,3.9l0,0
					c-0.6,1.6-0.9,3.5-0.9,5.8l0,0v42.2h13.2v-36.3c0-0.5,0.1-0.8,0.4-1.1l0,0c0.2-0.3,0.5-0.4,0.9-0.4l0,0c0.4,0,0.8,0.2,1.2,0.7
					l0,0l27.5,34c1.2,1.5,2.6,2.5,4.2,3.2l0,0c1.6,0.7,3.5,1,5.6,1l0,0c1.2,0,2.4-0.2,3.6-0.7l0,0c1.1-0.4,2.1-1.1,3-2.1l0,0
					c0.9-0.9,1.6-2.1,2.1-3.6l0,0c0.5-1.5,0.8-3.2,0.8-5.2l0,0v-43.2h-13.1v34.6c0,1-0.3,1.4-1,1.4l0,0c-0.2,0-0.5,0-0.7-0.1l0,0
					c-0.2-0.1-0.4-0.2-0.6-0.5l0,0l-24.5-31.3c-1.6-2-3.2-3.3-4.8-4.1l0,0c-1.6-0.8-3.6-1.2-6-1.2l0,0
					C629.4,825.2,627.9,825.4,626.5,825.8"/>
			</g>
		</g>
	</g>
</g>
<g id="g252">
	<g id="g254">
		<g id="g260">
			<g id="g262">
				
					<linearGradient id="path280_1_" gradientUnits="userSpaceOnUse" x1="367.3193" y1="1084.233" x2="368.3193" y2="1084.233" gradientTransform="matrix(-3.1072 140.8601 140.8601 3.1072 -150867.5781 -54303.4141)">
					<stop  offset="0" style="stop-color:#FACB3B"/>
					<stop  offset="3.726880e-03" style="stop-color:#FACB3B"/>
					<stop  offset="0.2198" style="stop-color:#EA8F3F"/>
					<stop  offset="0.4699" style="stop-color:#DE513E"/>
					<stop  offset="0.6148" style="stop-color:#C94563"/>
					<stop  offset="0.8343" style="stop-color:#7C4E94"/>
					<stop  offset="1" style="stop-color:#554893"/>
				</linearGradient>
				<path id="path280" class="st8" d="M714.7,826.3c-4.1,0-7.6,0.6-10.6,1.9l0,0c-3,1.2-5.7,3-7.9,5.2l0,0c-2.5,2.5-4.5,5.4-5.9,8.8
					l0,0c-1.4,3.4-2.1,7-2.1,10.9l0,0c0,3.5,0.6,6.8,1.7,9.9l0,0c1.1,3.1,2.7,5.8,4.7,8.2l0,0c2.3,2.7,5.1,4.8,8.4,6.4l0,0
					c3.3,1.6,7.2,2.3,11.7,2.3l0,0h23.9c2.1,0,3.2-1.1,3.2-3.4l0,0v-25.9h-13.3v14.3c0,0.7-0.3,1.1-1,1.1l0,0h-12.8
					c-2.4,0-4.4-0.4-6-1.2l0,0c-1.6-0.8-3-1.9-4.1-3.1l0,0c-1-1.1-1.8-2.4-2.3-3.8l0,0c-0.5-1.5-0.8-3-0.8-4.6l0,0
					c0-1.8,0.3-3.5,1-5.1l0,0c0.7-1.6,1.6-3,2.7-4.1l0,0c1.1-1.1,2.4-1.9,3.9-2.5l0,0c1.5-0.6,3.4-1,5.6-1l0,0h27v-14.2H714.7z"/>
			</g>
		</g>
	</g>
</g>
<g id="g282">
	<g id="g284">
		<g id="g290">
			<g id="g292">
				
					<linearGradient id="path300_1_" gradientUnits="userSpaceOnUse" x1="365.1437" y1="1081.0818" x2="366.1437" y2="1081.0818" gradientTransform="matrix(0 63.5332 63.5332 0 -67909.2578 -22373.8418)">
					<stop  offset="0" style="stop-color:#53A2BD"/>
					<stop  offset="1" style="stop-color:#314162"/>
				</linearGradient>
				<path id="path300" class="st9" d="M758,826.3c-6,0-9,3.3-9,9.8l0,0v43.7h13.4V862h39v-13.3h-39v-5.8c0-1.6,0.7-2.4,2.1-2.4l0,0
					h37.2v-14.2H758z"/>
			</g>
		</g>
	</g>
</g>
<g id="g302">
	<g id="g304">
		<g id="g310">
			<g id="g312">
				
					<linearGradient id="path320_1_" gradientUnits="userSpaceOnUse" x1="365.1437" y1="1081.0818" x2="366.1437" y2="1081.0818" gradientTransform="matrix(0 63.5332 63.5332 0 -67850.9375 -22373.8418)">
					<stop  offset="0" style="stop-color:#53A2BD"/>
					<stop  offset="1" style="stop-color:#314162"/>
				</linearGradient>
				<path id="path320" class="st10" d="M807.3,826.3v36.1c0,2.9,0.3,5.5,0.8,7.6l0,0c0.5,2.2,1.4,4,2.7,5.5l0,0
					c1.3,1.5,2.9,2.5,5,3.2l0,0c2.1,0.7,4.7,1.1,7.7,1.1l0,0h36.4v-13.7h-34.8c-1.7,0-2.9-0.4-3.5-1.1l0,0c-0.6-0.7-0.9-2-0.9-4l0,0
					v-34.8H807.3z"/>
			</g>
		</g>
	</g>
</g>
<g id="g322">
	<g id="g324">
		<g id="g330">
			<g id="g332">
				
					<linearGradient id="path340_1_" gradientUnits="userSpaceOnUse" x1="365.1437" y1="1081.0818" x2="366.1437" y2="1081.0818" gradientTransform="matrix(0 63.5332 63.5332 0 -67790.7266 -22373.8418)">
					<stop  offset="0" style="stop-color:#53A2BD"/>
					<stop  offset="1" style="stop-color:#314162"/>
				</linearGradient>
				<path id="path340" class="st11" d="M888.6,826.3c-4.1,0-7.6,0.6-10.6,1.9l0,0c-3,1.2-5.7,3-7.9,5.2l0,0
					c-2.5,2.5-4.5,5.4-5.9,8.8l0,0c-1.4,3.4-2.1,7-2.1,10.9l0,0c0,3.5,0.6,6.8,1.7,9.9l0,0c1.1,3.1,2.7,5.8,4.7,8.2l0,0
					c2.3,2.7,5.1,4.8,8.4,6.4l0,0c3.3,1.6,7.2,2.3,11.7,2.3l0,0h10.5c4.5,0,8.4-0.8,11.7-2.3l0,0c3.3-1.6,6.1-3.7,8.4-6.4l0,0
					c2-2.4,3.6-5.1,4.7-8.2l0,0c1.1-3.1,1.7-6.4,1.7-9.9l0,0c0-3.9-0.7-7.5-2.1-10.9l0,0c-1.4-3.4-3.4-6.3-5.9-8.8l0,0
					c-2.2-2.2-4.9-3.9-7.9-5.2l0,0c-3-1.2-6.6-1.9-10.6-1.9l0,0H888.6z M882.5,864.7c-1.6-0.7-3-1.7-4.1-3l0,0
					c-1-1.1-1.8-2.4-2.3-3.8l0,0c-0.5-1.5-0.8-3-0.8-4.6l0,0c0-1.8,0.3-3.5,1-5.1l0,0c0.7-1.6,1.6-3,2.7-4.1l0,0
					c1.1-1.1,2.4-1.9,3.9-2.5l0,0c1.5-0.6,3.4-1,5.6-1l0,0h10.5c2.3,0,4.2,0.3,5.6,1l0,0c1.5,0.6,2.8,1.5,3.9,2.5l0,0
					c1.1,1.2,2,2.5,2.7,4.1l0,0c0.7,1.6,1,3.3,1,5.1l0,0c0,1.6-0.3,3.2-0.8,4.6l0,0c-0.5,1.5-1.3,2.7-2.3,3.8l0,0
					c-1.1,1.3-2.4,2.3-4.1,3l0,0c-1.6,0.7-3.6,1.1-6,1.1l0,0h-10.5C886.2,865.8,884.2,865.4,882.5,864.7"/>
			</g>
		</g>
	</g>
</g>
<g id="g342">
	<g id="g344">
		<g id="g350">
			<g id="g352">
				
					<linearGradient id="path360_1_" gradientUnits="userSpaceOnUse" x1="365.1437" y1="1081.0818" x2="366.1437" y2="1081.0818" gradientTransform="matrix(0 63.5332 63.5332 0 -67711.9219 -22373.8418)">
					<stop  offset="0" style="stop-color:#53A2BD"/>
					<stop  offset="1" style="stop-color:#314162"/>
				</linearGradient>
				<path id="path360" class="st12" d="M963.5,827.9c-2.2,1.8-3.8,4.7-4.8,8.5l0,0l-7.6,28.7c-0.1,0.6-0.4,1.1-0.7,1.3l0,0
					c-0.3,0.2-0.7,0.4-1.1,0.4l0,0c-1,0-1.6-0.6-1.8-1.8l0,0l-5.3-36.6c0-0.4-0.1-0.7-0.1-1.1l0,0c0-0.4,0-0.7,0-1l0,0h-14.2
					c0,0.7,0.1,1.5,0.2,2.5l0,0l6.2,40.1c0.2,1.7,0.7,3.3,1.4,4.8l0,0c0.7,1.5,1.6,2.7,2.8,3.8l0,0c1.2,1.1,2.6,1.9,4.3,2.5l0,0
					c1.7,0.6,3.7,0.9,6,0.9l0,0c3.9,0,7-1,9.3-2.9l0,0c2.4-1.9,4.1-4.9,5.2-9.1l0,0l7.8-29.5c0.2-1.1,0.8-1.6,1.6-1.6l0,0
					c0.8,0,1.4,0.5,1.6,1.6l0,0l7.2,29.5c2,8,6.7,12,14.2,12l0,0c4.5,0,7.9-1.1,10.3-3.3l0,0c2.3-2.2,3.8-5.1,4.4-8.6l0,0l6.7-40.2
					c0.1-0.6,0.2-1,0.2-1.4l0,0c0-0.3,0-0.7,0-1.1l0,0h-14v0.9c0,0.3-0.1,0.7-0.1,1.2l0,0l-5.7,36.6c-0.2,1.2-0.8,1.8-1.8,1.8l0,0
					c-0.4,0-0.8-0.1-1.1-0.4l0,0c-0.3-0.2-0.5-0.7-0.7-1.3l0,0l-7.5-29.1c-0.9-3.6-2.4-6.4-4.5-8.2l0,0c-2.1-1.8-5.1-2.7-9.1-2.7
					l0,0C968.8,825.2,965.6,826.1,963.5,827.9"/>
			</g>
		</g>
	</g>
</g>
<g id="g362">
	<g id="g364">
		<g id="g370">
			<g id="g372">
				
					<linearGradient id="path380_1_" gradientUnits="userSpaceOnUse" x1="367.7997" y1="1087.6987" x2="368.7997" y2="1087.6987" gradientTransform="matrix(305.9856 -2.1249 -2.1249 -305.9856 -109949.3906 334304.1562)">
					<stop  offset="0" style="stop-color:#53A2BD"/>
					<stop  offset="1" style="stop-color:#314162"/>
				</linearGradient>
				<path id="path380" class="st13" d="M427,696.7c-0.9,0.7-2.7,1.7-5,2.9l0,0c-2.3,1.3-5.1,2.6-8.5,3.9l0,0c-1.1,0.6-2.3,1-3.4,1.3
					l0,0c-0.3,0.1-0.7,0.3-0.9,0.4l0,0c-39.6,14.9-129.5,32.2-144.6-61.3l0,0l-0.7-3.3c14.1,114,133.9,180.8,230.8,120.8l0,0
					l112.6-110.5l-52.9-32.7L427,696.7z"/>
			</g>
		</g>
	</g>
</g>
<g id="g382">
	<g id="g384">
		<g id="g390">
			<g id="g392">
				
					<linearGradient id="path400_1_" gradientUnits="userSpaceOnUse" x1="368.8479" y1="1085.4065" x2="369.8479" y2="1085.4065" gradientTransform="matrix(-138.2109 262.9378 262.9378 138.2109 -233990.5938 -246528.9062)">
					<stop  offset="0" style="stop-color:#53A2BD"/>
					<stop  offset="1" style="stop-color:#314162"/>
				</linearGradient>
				<path id="path400" class="st14" d="M268,573.8c-2.4,9.4-4.1,19.1-4.9,29.2l0,0c-0.4,4.9-0.6,10-0.6,15.1l0,0
					c0,2.4,0.1,4.9,0.3,7.2l0,0v0.2c0.2,5.1,0.6,10.1,1.3,15l0,0l0.7,3.2c0.4,2.8,1,5.5,1.6,8.1l0,0c18.8,84.5,104.7,67.8,143,53.3
					l0,0c-2.5,0.8-5,1.6-7.5,2.1l0,0c-5.6,1.3-11.2,1.9-17,1.9l0,0c-5.6,0-11.2-0.6-16.8-1.9l0,0c-17.9-4-35.2-14.3-48-29.9l0,0h0
					c-12.4-15.2-20.5-35.3-20.5-59.3l0,0c-4.5-60.1,9.2-139.6,89.9-162.9l0,0C332.9,466.5,283.9,511.2,268,573.8"/>
			</g>
		</g>
	</g>
</g>
<g id="g402">
	<g id="g404">
		<g id="g410">
			<g id="g412">
				
					<linearGradient id="path420_1_" gradientUnits="userSpaceOnUse" x1="370.2757" y1="1086.9789" x2="371.2757" y2="1086.9789" gradientTransform="matrix(-274.5033 -211.2388 -211.2388 274.5033 331814.5625 -219501.5625)">
					<stop  offset="0" style="stop-color:#53A2BD"/>
					<stop  offset="1" style="stop-color:#314162"/>
				</linearGradient>
				<path id="path420" class="st15" d="M389.4,455.2c-80.7,23.3-94.5,102.8-89.9,162.9l0,0c0-37.1,19.3-64.9,44.2-79.4l0,0
					c41.5-32.1,196.9-35.7,297.1,26.2l0,0l-146-90.1c-24.9-15.4-51.4-22.4-77.1-22.4l0,0C408.1,452.4,398.6,453.3,389.4,455.2"/>
			</g>
		</g>
	</g>
</g>
<g id="g422">
	<g id="g424">
		<g id="g430">
			<g id="g432">
				
					<linearGradient id="path440_1_" gradientUnits="userSpaceOnUse" x1="367.3189" y1="1085.7682" x2="368.3189" y2="1085.7682" gradientTransform="matrix(84.6115 202.1885 202.1885 -84.6115 -249862.1406 18187.0215)">
					<stop  offset="0" style="stop-color:#53A2BD"/>
					<stop  offset="1" style="stop-color:#314162"/>
				</linearGradient>
				<path id="path440" class="st16" d="M719.5,623l-45.4,27.9l-13.9,8.5l-10.5,6.4l-9,5.5c0,0,0,0,0,0l0,0
					c5.6,3.4,11.4,6.7,17.3,9.7l0,0c98.7,50.9,237,46.9,278.1,17.6l0,0c-1.9,1-3.8,2-5.8,2.9l0,0c-0.1,0-0.1,0.1-0.3,0.1l0,0
					c-10.5,4.9-21.9,7.5-33.4,7.5l0,0c-14.7,0-28.8-4.2-42.3-12.5l0,0l-10.1-6.2l-95.7-59h-0.1l-4.9-3.1l-0.4-0.2l-16.2-9.9
					L719.5,623z"/>
			</g>
		</g>
	</g>
</g>
<g id="g442">
	<g id="g444">
		<g id="g450">
			<g id="g452">
				
					<linearGradient id="path460_1_" gradientUnits="userSpaceOnUse" x1="371.1256" y1="1088.2742" x2="372.1256" y2="1088.2742" gradientTransform="matrix(-69.1793 -160.3204 -160.3204 69.1793 200675.7031 -15150.1182)">
					<stop  offset="0" style="stop-color:#53A2BD"/>
					<stop  offset="1" style="stop-color:#314162"/>
				</linearGradient>
				<path id="path460" class="st17" d="M343.6,538.7c12.8-7.6,27.1-11.7,41.1-11.7l0,0c14.7,0,29,4.2,42.3,12.4l0,0l17.1,10.6
					l93.7,57.8l16.6,10.2l0.2-0.1l52.7-32.5l28.3-17.3l5.1-3.1c-5.6-3.5-11.4-6.7-17.3-9.7l0,0C569.8,527.5,504.6,516,449.6,516l0,0
					C401.9,516,361.8,524.6,343.6,538.7"/>
			</g>
		</g>
	</g>
</g>
<g id="g462">
	<g id="g464">
		<g id="g470">
			<g id="g472">
				
					<linearGradient id="path490_1_" gradientUnits="userSpaceOnUse" x1="369.0433" y1="1086.1815" x2="370.0433" y2="1086.1815" gradientTransform="matrix(-376.3833 498.0038 498.0038 376.3833 -401274.75 -592126.75)">
					<stop  offset="0" style="stop-color:#FACB3B"/>
					<stop  offset="3.726880e-03" style="stop-color:#FACB3B"/>
					<stop  offset="0.2198" style="stop-color:#EA8F3F"/>
					<stop  offset="0.4699" style="stop-color:#DE513E"/>
					<stop  offset="0.6148" style="stop-color:#C94563"/>
					<stop  offset="0.8343" style="stop-color:#7C4E94"/>
					<stop  offset="1" style="stop-color:#554893"/>
				</linearGradient>
				<path id="path490" class="st18" d="M640.7,564.9l-33.4,20.4L554.4,618l0.1,0.1l-0.1,0.1l52.9,32.7L494.7,761.4l146-90.1
					l33.4-20.4l45.4-27.9l7.5-4.7l-0.1-0.1l0.1-0.1l-13.5-8.3l-39.5-24.3l112.6-110.5L640.7,564.9z"/>
			</g>
		</g>
	</g>
</g>
<g id="g492">
	<g id="g494">
		<g id="g500">
			<g id="g502">
				
					<linearGradient id="path510_1_" gradientUnits="userSpaceOnUse" x1="370.1583" y1="1086.3177" x2="371.1583" y2="1086.3177" gradientTransform="matrix(-340.0911 -43.5742 -43.5742 340.0911 174253.5156 -352753)">
					<stop  offset="0" style="stop-color:#53A2BD"/>
					<stop  offset="1" style="stop-color:#314162"/>
				</linearGradient>
				<path id="path510" class="st19" d="M809.7,463.1c-7.8,3.2-15.5,7.1-23,11.7l0,0L674.1,585.3l39.5,24.3L727,618l10.1-6.3
					l117.3-72.2c0.3-0.1,0.5-0.3,0.8-0.4l0,0c0.9-0.6,2.4-1.4,4.3-2.4l0,0c0.9-0.6,1.7-0.9,2.7-1.3l0,0c1.3-0.7,2.8-1.3,4.2-1.9l0,0
					c2-0.9,4.2-1.7,6.2-2.3l0,0c0.8-0.3,1.6-0.6,2.4-0.7l0,0c0.4-0.1,0.8-0.3,1.2-0.4l0,0c42.1-14.5,129.5-28.5,141.4,68.1l0,0
					c-1.9-18.4-6.6-35.7-13.6-51.2l0,0c-0.3-0.9-0.7-1.7-1.2-2.7l0,0c-26.1-56-80.8-91.7-138.8-91.7l0,0
					C845.9,452.4,827.6,455.8,809.7,463.1"/>
			</g>
		</g>
	</g>
</g>
<g id="g512">
	<g id="g514">
		<g id="g520">
			<g id="g522">
				
					<linearGradient id="path530_1_" gradientUnits="userSpaceOnUse" x1="367.6461" y1="1087.0322" x2="368.6461" y2="1087.0322" gradientTransform="matrix(288.4051 150.6116 150.6116 -288.4051 -269033.0625 258736.875)">
					<stop  offset="0" style="stop-color:#53A2BD"/>
					<stop  offset="1" style="stop-color:#314162"/>
				</linearGradient>
				<path id="path530" class="st20" d="M956.4,683.3c-6.1,6.2-12.9,11.4-20.2,15.4l0,0c-43.6,31.1-196.5,33.7-295.4-27.3l0,0
					l25.4,15.7l120.5,74.4C825,785.1,866.8,789,904.3,778l0,0c63.8-20.9,77.6-98.7,77.6-159.9l0,0
					C981.9,650.2,968.1,671.2,956.4,683.3"/>
			</g>
		</g>
	</g>
</g>
<g id="g532">
	<g id="g534">
		<g id="g540">
			<g id="g542">
				
					<linearGradient id="path550_1_" gradientUnits="userSpaceOnUse" x1="368.8503" y1="1088.3534" x2="369.8503" y2="1088.3534" gradientTransform="matrix(191.19 -232.5586 -232.5586 -191.19 183407.5 294619.5625)">
					<stop  offset="0" style="stop-color:#53A2BD"/>
					<stop  offset="1" style="stop-color:#314162"/>
				</linearGradient>
				<path id="path550" class="st21" d="M876.2,529.9c2.3-0.7,4.7-1.2,7-1.6l0,0c1.1-0.1,2.2-0.4,3.2-0.6l0,0
					c3.4-0.4,6.7-0.7,10.2-0.7l0,0c8.2,0,16.7,1.4,24.8,4.3l0,0c32.2,10.6,60.5,41.9,60.5,86.8l0,0c0,61.2-13.8,139-77.6,159.9l0,0
					c63.6-18.6,114.6-79.8,114.6-159.9l0,0c0-2.4-0.1-4.9-0.3-7.2l0,0c-0.1-2.9-0.4-5.8-0.5-8.5l0,0c-0.3-1.3-0.4-2.9-0.5-4.5l0,0
					c-0.3-2.7-0.7-5.5-1.2-8.1l0,0c-9.9-55.3-46.8-70.3-83-70.3l0,0C912.2,519.6,891.3,524.7,876.2,529.9"/>
			</g>
		</g>
	</g>
</g>
<g>
	<defs>
		<rect id="SVGID_1_" y="0" width="1333.3" height="1333.3"/>
	</defs>
	<clipPath id="SVGID_2_">
		<use xlink:href="#SVGID_1_"  style="overflow:visible;"/>
	</clipPath>
</g>
<g id="g832">
	<g id="g834">
		<g id="g840">
			<g id="g842">
				
					<linearGradient id="path860_1_" gradientUnits="userSpaceOnUse" x1="365.0598" y1="1081.4352" x2="366.0598" y2="1081.4352" gradientTransform="matrix(2.5964 65.7745 65.7745 -2.5964 -71046.8594 -20387.043)">
					<stop  offset="0" style="stop-color:#FACB3B"/>
					<stop  offset="3.726880e-03" style="stop-color:#FACB3B"/>
					<stop  offset="0.2198" style="stop-color:#EA8F3F"/>
					<stop  offset="0.4699" style="stop-color:#DE513E"/>
					<stop  offset="0.6148" style="stop-color:#C94563"/>
					<stop  offset="0.8343" style="stop-color:#7C4E94"/>
					<stop  offset="1" style="stop-color:#554893"/>
				</linearGradient>
				<path id="path860" class="st22" d="M1023,826.7v4.9h6.4v20.6h5.8v-20.6h6.5v-4.9H1023z"/>
			</g>
		</g>
	</g>
</g>
<g id="g862">
	<g id="g864">
		<g id="g870">
			<g id="g872">
				
					<linearGradient id="path890_1_" gradientUnits="userSpaceOnUse" x1="365.054" y1="1081.4271" x2="366.054" y2="1081.4271" gradientTransform="matrix(2.5925 65.6774 65.6774 -2.5925 -70915.1641 -20356.3848)">
					<stop  offset="0" style="stop-color:#FACB3B"/>
					<stop  offset="3.726880e-03" style="stop-color:#FACB3B"/>
					<stop  offset="0.2198" style="stop-color:#EA8F3F"/>
					<stop  offset="0.4699" style="stop-color:#DE513E"/>
					<stop  offset="0.6148" style="stop-color:#C94563"/>
					<stop  offset="0.8343" style="stop-color:#7C4E94"/>
					<stop  offset="1" style="stop-color:#554893"/>
				</linearGradient>
				<path id="path890" class="st23" d="M1063.9,826.9l-6.3,17.6l-6.4-17.6h-7v25.3h5.8v-15.8l5.2,15.8h5l5.1-15.8v15.8h5.8v-25.3
					H1063.9z"/>
			</g>
		</g>
	</g>
</g>
</svg>
