<?xml version="1.0" encoding="utf-8"?>
<!-- Generator: Adobe Illustrator 24.2.3, SVG Export Plug-In . SVG Version: 6.00 Build 0)  -->
<svg version="1.1" id="Layer_1" xmlns="http://www.w3.org/2000/svg" xmlns:xlink="http://www.w3.org/1999/xlink" x="0px" y="0px"
	 viewBox="0 0 1000 1000" style="enable-background:new 0 0 1000 1000;" xml:space="preserve">
<style type="text/css">
	.st0{fill:url(#SVGID_1_);}
	.st1{fill:#ffffff;}
</style>
<g>
	<linearGradient id="SVGID_1_" gradientUnits="userSpaceOnUse" x1="73.4442" y1="222.1262" x2="942.0974" y2="787.9982">
		<stop  offset="0" style="stop-color:#499FBB"/>
		<stop  offset="1" style="stop-color:#18325A"/>
	</linearGradient>
	<path class="st0" d="M807.3,568.09H192.7c-8.34,0-15.09-6.76-15.09-15.09V447c0-8.34,6.76-15.09,15.09-15.09h614.6
		c8.34,0,15.09,6.76,15.09,15.09v106C822.39,561.34,815.64,568.09,807.3,568.09z"/>
	<g>
		<g>
			<path class="st1" d="M223.09,532.3v-63.51h22.28c10.28,0,17.93,2.67,22.95,8c5.01,5.33,7.52,13.24,7.52,23.71
				s-2.51,18.39-7.52,23.76c-5.02,5.37-12.66,8.05-22.95,8.05H223.09z M233.57,523.45h10.76c7.11,0,12.35-1.82,15.71-5.48
				c3.36-3.65,5.05-9.47,5.05-17.47c0-7.94-1.68-13.74-5.05-17.43c-3.37-3.68-8.6-5.52-15.71-5.52h-10.76V523.45z"/>
			<path class="st1" d="M282.51,532.3l24.76-63.51h11.14l24.09,63.51h-11.05l-21.23-58.37l4-0.38l-21.24,58.75H282.51z
				 M294.7,515.07l3.05-8.57h30.19l0.86,8.57H294.7z"/>
			<path class="st1" d="M371.07,533.35c-3.17,0-5.97-0.18-8.38-0.52c-2.41-0.35-4.6-0.9-6.57-1.67c-1.97-0.76-4-1.68-6.09-2.76
				v-10.47c2.48,1.97,5.48,3.59,9,4.86c3.52,1.27,7.32,1.9,11.38,1.9c3.94,0,6.87-0.81,8.81-2.43c1.94-1.62,2.9-3.86,2.9-6.71
				c0-2.22-0.71-4.01-2.14-5.38c-1.43-1.36-3.32-2.52-5.67-3.48c-2.35-0.95-4.86-1.9-7.52-2.86c-2.03-0.76-4.03-1.57-6-2.43
				c-1.97-0.86-3.75-1.94-5.33-3.24c-1.59-1.3-2.86-2.97-3.81-5c-0.95-2.03-1.43-4.54-1.43-7.52c0-2.1,0.41-4.22,1.24-6.38
				c0.82-2.16,2.08-4.11,3.76-5.86c1.68-1.75,3.9-3.14,6.67-4.19s6.08-1.57,9.95-1.57c2.54,0,4.75,0.16,6.62,0.48
				c1.87,0.32,3.65,0.81,5.33,1.48c1.68,0.67,3.51,1.48,5.48,2.43v10.28c-1.59-1.01-3.19-1.97-4.81-2.86
				c-1.62-0.89-3.38-1.62-5.28-2.19c-1.9-0.57-4.03-0.89-6.38-0.95c-2.67-0.06-4.86,0.25-6.57,0.95c-1.71,0.7-3.02,1.68-3.9,2.95
				c-0.89,1.27-1.33,2.73-1.33,4.38c0,2.22,0.56,3.98,1.67,5.28c1.11,1.3,2.68,2.38,4.71,3.24c2.03,0.86,4.38,1.7,7.05,2.52
				c2.35,0.76,4.63,1.62,6.86,2.57c2.22,0.95,4.19,2.11,5.9,3.48c1.71,1.37,3.1,3.06,4.14,5.09c1.05,2.03,1.57,4.54,1.57,7.52
				c0,3.3-0.75,6.4-2.24,9.28c-1.49,2.89-3.84,5.24-7.05,7.05C380.38,532.44,376.21,533.35,371.07,533.35z"/>
			<path class="st1" d="M405.35,532.3v-63.51h10.48v27.33h29.33v-27.33h10.57v63.51h-10.57v-27.04h-29.33v27.04H405.35z"/>
			<path class="st1" d="M470.77,532.3v-63.51h23.52c5.14,0,9.32,0.7,12.52,2.09c3.2,1.4,5.57,3.38,7.09,5.95
				c1.52,2.57,2.29,5.63,2.29,9.19c0,2.79-0.54,5.03-1.62,6.71c-1.08,1.68-2.37,3.03-3.86,4.05c-1.49,1.02-2.9,1.97-4.24,2.86
				l-1.24-2.19c2.41,0.44,4.73,1.32,6.95,2.62c2.22,1.3,4.05,3.08,5.48,5.33c1.43,2.25,2.14,5.06,2.14,8.43
				c0,4.32-0.99,7.84-2.95,10.57c-1.97,2.73-4.71,4.73-8.24,6c-3.52,1.27-7.57,1.9-12.14,1.9H470.77z M481.24,495.26h14.28
				c1.65,0,3.24-0.21,4.76-0.62c1.52-0.41,2.79-1.22,3.81-2.43c1.02-1.21,1.52-2.98,1.52-5.33c0-3.55-1-5.98-3-7.28
				c-2-1.3-4.65-1.95-7.95-1.95h-13.43V495.26z M481.34,523.54h15.04c2.22,0,4.3-0.27,6.24-0.81c1.94-0.54,3.49-1.55,4.67-3.05
				c1.17-1.49,1.76-3.6,1.76-6.33c0-2.1-0.38-3.78-1.14-5.05c-0.76-1.27-1.76-2.24-3-2.9c-1.24-0.67-2.63-1.11-4.19-1.33
				c-1.56-0.22-3.09-0.33-4.62-0.33h-14.76V523.54z"/>
			<path class="st1" d="M559.32,533.35c-6.29,0-11.63-1.21-16.04-3.62c-4.41-2.41-7.76-6.03-10.05-10.86
				c-2.29-4.82-3.43-10.92-3.43-18.28c0-10.86,2.52-19.04,7.57-24.57s12.36-8.28,21.95-8.28c6.35,0,11.71,1.21,16.09,3.62
				c4.38,2.41,7.73,6.05,10.05,10.9c2.32,4.86,3.48,10.97,3.48,18.33c0,10.79-2.52,18.95-7.57,24.47
				C576.32,530.59,568.97,533.35,559.32,533.35z M559.32,524.3c4.25,0,7.76-0.81,10.52-2.43c2.76-1.62,4.82-4.17,6.19-7.67
				c1.36-3.49,2.05-8.06,2.05-13.71c0-5.59-0.68-10.11-2.05-13.57c-1.37-3.46-3.43-6-6.19-7.62c-2.76-1.62-6.27-2.43-10.52-2.43
				c-4.19,0-7.68,0.83-10.47,2.48c-2.79,1.65-4.87,4.21-6.24,7.67c-1.37,3.46-2.05,7.98-2.05,13.57c0,5.59,0.68,10.13,2.05,13.62
				c1.36,3.49,3.44,6.05,6.24,7.67C551.64,523.49,555.13,524.3,559.32,524.3z"/>
			<path class="st1" d="M595.51,532.3l24.76-63.51h11.14l24.09,63.51h-11.05l-21.23-58.37l4-0.38l-21.23,58.75H595.51z
				 M607.7,515.07l3.05-8.57h30.19l0.86,8.57H607.7z"/>
			<path class="st1" d="M664.64,532.3v-63.51h28.19c6.6,0,11.67,1.6,15.19,4.81c3.52,3.21,5.28,7.98,5.28,14.33
				c0,3.3-0.67,6.35-2,9.14c-1.33,2.79-3.27,5.08-5.81,6.86c-2.54,1.78-5.56,2.79-9.05,3.05l1.14-3.24l18.85,28.57H703.4
				l-17.62-28.47l4.86,4.48h-15.52v24H664.64z M675.11,499.73h14.76c4.19,0,7.32-0.92,9.38-2.76c2.06-1.84,3.09-4.63,3.09-8.38
				c0-3.49-0.81-6.19-2.43-8.09c-1.62-1.9-4.4-2.86-8.33-2.86h-16.47V499.73z"/>
			<path class="st1" d="M727.96,532.3v-63.51h22.28c10.28,0,17.93,2.67,22.95,8c5.01,5.33,7.52,13.24,7.52,23.71
				s-2.51,18.39-7.52,23.76c-5.02,5.37-12.67,8.05-22.95,8.05H727.96z M738.44,523.45h10.76c7.11,0,12.35-1.82,15.71-5.48
				c3.36-3.65,5.05-9.47,5.05-17.47c0-7.94-1.68-13.74-5.05-17.43c-3.37-3.68-8.6-5.52-15.71-5.52h-10.76V523.45z"/>
		</g>
	</g>
</g>
</svg>
