<svg id="Layer_1" data-name="Layer 1" xmlns="http://www.w3.org/2000/svg" xmlns:xlink="http://www.w3.org/1999/xlink" viewBox="0 0 500 500"><defs><style>.cls-1{fill:url(#linear-gradient);}.cls-2{fill:none;stroke:#3a3a3a;stroke-linecap:round;stroke-miterlimit:10;stroke-width:0.81px;}.cls-3{fill:#fff;}</style><linearGradient id="linear-gradient" x1="203.69" y1="509.74" x2="404.79" y2="924.28" gradientTransform="matrix(1, 0, 0, -1, -30.11, 865.55)" gradientUnits="userSpaceOnUse"><stop offset="0" stop-color="#499fbb"/><stop offset="1" stop-color="#18325a"/></linearGradient></defs><path class="cls-1" d="M68.89,238.58H379.53a0,0,0,0,1,0,0v45.78a18.89,18.89,0,0,1-18.89,18.89H68.89A18.89,18.89,0,0,1,50,284.35V257.47a18.89,18.89,0,0,1,18.89-18.89Z"/><polyline class="cls-2" points="450 196.75 435.01 239.32 379.53 239.32"/><path class="cls-3" d="M88.9,287.66V251.83h6.17l12.84,19-3.49.43,13.48-19.39H124v35.83h-5.91V256.88l1.67,1.13-13.65,18.85-13-18.69,1.56-1.72v31.21Z"/><path class="cls-3" d="M143.79,288.46a14.13,14.13,0,0,1-6.9-1.61,10.78,10.78,0,0,1-4.51-4.78,17.11,17.11,0,0,1-1.59-7.74q0-7,3.3-10.66t9.22-3.62a11.75,11.75,0,0,1,7,1.93,10.88,10.88,0,0,1,3.9,5.4,23.71,23.71,0,0,1,1.15,8.08H134.18l-.17-4.19h17.08l-1.34,1.35c-.11-2.76-.68-4.77-1.72-6.05a6,6,0,0,0-4.88-1.9,7.09,7.09,0,0,0-3.66.88,5.55,5.55,0,0,0-2.28,3,17.47,17.47,0,0,0-.78,5.83q0,4.51,2.1,6.85t6.17,2.33a16.67,16.67,0,0,0,3.41-.32,18,18,0,0,0,2.93-.83,22.34,22.34,0,0,0,2.31-1v5.21a23,23,0,0,1-4.24,1.32A25.35,25.35,0,0,1,143.79,288.46Z"/><path class="cls-3" d="M167.48,287.66h-5.59V250.49h5.59Z"/><path class="cls-3" d="M186.81,288.46a32.27,32.27,0,0,1-4.24-.27,14.22,14.22,0,0,1-3.65-.94,6.26,6.26,0,0,1-2.56-1.85,4.81,4.81,0,0,1-.94-3.06V249.9H181v14.55l-1.45-1.82a8.75,8.75,0,0,1,2.55-1.35,25.71,25.71,0,0,1,3.12-.86,14.24,14.24,0,0,1,2.71-.32q6.12,0,9.18,3.63t3.06,10.18a19.5,19.5,0,0,1-1.15,7.25,11.07,11.07,0,0,1-3.06,4.43,11.34,11.34,0,0,1-4.3,2.23A18.53,18.53,0,0,1,186.81,288.46Zm-.27-4.89a8,8,0,0,0,4.89-1.29,6.46,6.46,0,0,0,2.36-3.41,16.24,16.24,0,0,0,.65-4.75,13.77,13.77,0,0,0-.81-5.05,6.42,6.42,0,0,0-2.42-3.11,7.26,7.26,0,0,0-4.13-1.08,13.79,13.79,0,0,0-3,.38,10.8,10.8,0,0,0-3,1.18v14.5a1.92,1.92,0,0,0,.86,1.67,5.09,5.09,0,0,0,2.12.78A18,18,0,0,0,186.54,283.57Z"/><path class="cls-3" d="M218.28,288.46q-6.54,0-9.74-3.71t-3.2-10.58q0-7.31,3.3-10.71c2.21-2.27,5.38-3.41,9.54-3.41a14.77,14.77,0,0,1,7.36,1.64,10,10,0,0,1,4.29,4.8,19.05,19.05,0,0,1,1.4,7.68q0,6.82-3.36,10.56T218.28,288.46Zm-.05-4.78a7,7,0,0,0,4.35-1.21,6.74,6.74,0,0,0,2.34-3.35,17.92,17.92,0,0,0,0-10.16,6.06,6.06,0,0,0-2.36-3.14,7.8,7.8,0,0,0-4.3-1.05,7.4,7.4,0,0,0-4.3,1.13,6.24,6.24,0,0,0-2.31,3.22,16.31,16.31,0,0,0-.69,5.05,12.61,12.61,0,0,0,1.66,7Q214.26,283.68,218.23,283.68Z"/><path class="cls-3" d="M249.7,288.46a15.2,15.2,0,0,1-6.36-1.21,9,9,0,0,1-4.11-3.62,11.5,11.5,0,0,1-1.45-6V260.69h5.64v16.12q0,3.44,1.53,5.07a7.71,7.71,0,0,0,9.51,0q1.53-1.63,1.53-5.07V260.69h5.42v16.92c0,3.58-1,6.29-3.09,8.11S253.39,288.46,249.7,288.46Z"/><path class="cls-3" d="M269.36,287.66v-24.5a20.63,20.63,0,0,1,2.58-1.18,27.93,27.93,0,0,1,4.46-1.31,24,24,0,0,1,5.21-.57,8.94,8.94,0,0,1,2.2.22,8.19,8.19,0,0,1,1.45.48v4.51q-1.23-.17-2.58-.24a24,24,0,0,0-2.68,0c-.9.05-1.78.13-2.63.24l-2.37.32v22Z"/><path class="cls-3" d="M290.79,262.89a23.23,23.23,0,0,1,2.66-1.1,29.12,29.12,0,0,1,3.14-.88,34.27,34.27,0,0,1,3.39-.59,25.5,25.5,0,0,1,3.33-.22,15.77,15.77,0,0,1,6.23,1,7.24,7.24,0,0,1,3.6,3.22,11.42,11.42,0,0,1,1.18,5.45v17.84h-5.64V270.58a8.58,8.58,0,0,0-.24-2,4.68,4.68,0,0,0-.92-1.82,4.42,4.42,0,0,0-1.93-1.32,9.44,9.44,0,0,0-3.3-.48,18.31,18.31,0,0,0-3,.26,16.75,16.75,0,0,0-2.87.76v21.7h-5.64Z"/><path class="cls-3" d="M333.87,288.46a14.2,14.2,0,0,1-6.91-1.61,10.83,10.83,0,0,1-4.51-4.78,17.25,17.25,0,0,1-1.58-7.74q0-7,3.3-10.66t9.21-3.62a11.78,11.78,0,0,1,7,1.93,10.8,10.8,0,0,1,3.89,5.4,23.7,23.7,0,0,1,1.16,8.08H324.25l-.16-4.19h17.08l-1.34,1.35c-.11-2.76-.68-4.77-1.72-6.05a6,6,0,0,0-4.89-1.9,7.07,7.07,0,0,0-3.65.88,5.55,5.55,0,0,0-2.28,3,17.47,17.47,0,0,0-.78,5.83q0,4.51,2.09,6.85a7.91,7.91,0,0,0,6.18,2.33,16.74,16.74,0,0,0,3.41-.32,18.34,18.34,0,0,0,2.93-.83,24.42,24.42,0,0,0,2.31-1v5.21a23.1,23.1,0,0,1-4.25,1.32A25.19,25.19,0,0,1,333.87,288.46Z"/></svg>