<svg id="Layer_1" data-name="Layer 1" xmlns="http://www.w3.org/2000/svg" xmlns:xlink="http://www.w3.org/1999/xlink" viewBox="0 0 500 500"><defs><style>.cls-1{fill:url(#linear-gradient);}.cls-2{fill:#fff;}.cls-3{fill:none;stroke:#3a3a3a;stroke-linecap:round;stroke-miterlimit:10;stroke-width:1.1px;}</style><linearGradient id="linear-gradient" x1="156.03" y1="121.09" x2="362.79" y2="547.31" gradientUnits="userSpaceOnUse"><stop offset="0" stop-color="#499fbb"/><stop offset="1" stop-color="#18325a"/></linearGradient></defs><path class="cls-1" d="M70.85,164.39H325.68a20.85,20.85,0,0,1,20.85,20.85v66.68a0,0,0,0,1,0,0H70.85A20.85,20.85,0,0,1,50,231.07V185.24A20.85,20.85,0,0,1,70.85,164.39Z"/><path class="cls-2" d="M115.61,214v17.37h-8V182.87h19.2q8.28,0,12.83,3.85t4.54,11.49q0,7.64-4.54,11.7T126.81,214Zm0-6.84h10.18a15.67,15.67,0,0,0,5.09-.69,6.73,6.73,0,0,0,4.54-4.76,12.42,12.42,0,0,0,.4-3.2,13.31,13.31,0,0,0-.4-3.27,6.82,6.82,0,0,0-1.49-2.87,7.1,7.1,0,0,0-3.05-2,14.79,14.79,0,0,0-5.09-.73H115.61Z"/><path class="cls-2" d="M169.12,232.45a19.1,19.1,0,0,1-9.34-2.18,14.57,14.57,0,0,1-6.11-6.47,23.23,23.23,0,0,1-2.14-10.47q0-9.53,4.47-14.43T168.46,194a16,16,0,0,1,9.53,2.62,14.65,14.65,0,0,1,5.27,7.31,32,32,0,0,1,1.56,10.94H156.11l-.22-5.67H179L177.19,211c-.15-3.73-.92-6.45-2.33-8.17s-3.61-2.58-6.61-2.58a9.7,9.7,0,0,0-4.95,1.19,7.54,7.54,0,0,0-3.09,4.08,23.66,23.66,0,0,0-1.05,7.88c0,4.08.94,7.16,2.83,9.27s4.68,3.17,8.36,3.17a23.23,23.23,0,0,0,4.62-.44,25.27,25.27,0,0,0,4-1.13c1.21-.46,2.26-.91,3.13-1.34v7a31.27,31.27,0,0,1-5.74,1.78A34.37,34.37,0,0,1,169.12,232.45Z"/><path class="cls-2" d="M193.62,231.36V198.21a25.76,25.76,0,0,1,3.49-1.6,38.49,38.49,0,0,1,6-1.78,32.87,32.87,0,0,1,7.05-.76,12.36,12.36,0,0,1,3,.29,11.82,11.82,0,0,1,2,.65v6.11c-1.12-.15-2.28-.26-3.49-.33a31.57,31.57,0,0,0-3.64,0c-1.21.07-2.4.18-3.56.33s-2.23.29-3.2.43v29.81Z"/><path class="cls-2" d="M235.64,232.31a11.2,11.2,0,0,1-7.82-2.62c-1.91-1.75-2.87-4.31-2.87-7.71V201.19h-5.89v-6.32H225V184.69h7.85v10.18h8.87v6.32H232.8v19.27a6.59,6.59,0,0,0,.91,3.81c.61.85,1.74,1.28,3.38,1.28a9.61,9.61,0,0,0,2.48-.33,8.51,8.51,0,0,0,2.1-.84v6.76a12.84,12.84,0,0,1-2.94.88A18.06,18.06,0,0,1,235.64,232.31Z"/><path class="cls-2" d="M250.54,231.36V179.45h7.64v20.87l-2.26-1.89a25.58,25.58,0,0,1,6.29-3.16,20.41,20.41,0,0,1,6.73-1.2,16.54,16.54,0,0,1,7.34,1.49,10.6,10.6,0,0,1,4.76,4.72,18.13,18.13,0,0,1,1.71,8.47v22.61h-7.63V209.7c0-3-.71-5.21-2.11-6.76s-3.49-2.33-6.26-2.33a15.62,15.62,0,0,0-4.39.65,20.37,20.37,0,0,0-4.18,1.75l-.08,28.35Z"/><polyline class="cls-3" points="450 335.61 421.63 251.93 346.53 251.93"/></svg>